<?xml version="1.0" encoding="UTF-8" standalone="no"?><!-- Generator: Gravit.io --><svg xmlns="http://www.w3.org/2000/svg" xmlns:xlink="http://www.w3.org/1999/xlink" style="isolation:isolate" viewBox="0 0 380 380" width="380pt" height="380pt"><g><path d=" M 1 190 C 1 85.688 85.688 1 190 1 C 294.312 1 379 85.688 379 190 C 379 294.312 294.312 379 190 379 C 85.688 379 1 294.312 1 190 Z  M 183.542 190 C 183.542 186.436 186.436 183.542 190 183.542 C 193.564 183.542 196.458 186.436 196.458 190 C 196.458 193.564 193.564 196.458 190 196.458 C 186.436 196.458 183.542 193.564 183.542 190 Z " fill-rule="evenodd" fill="rgb(0,0,0)"/><path d=" M 143.5 190 C 143.5 164.336 164.336 143.5 190 143.5 C 215.664 143.5 236.5 164.336 236.5 190 C 236.5 215.664 215.664 236.5 190 236.5 C 164.336 236.5 143.5 215.664 143.5 190 Z  M 183.542 190 C 183.542 186.436 186.436 183.542 190 183.542 C 193.564 183.542 196.458 186.436 196.458 190 C 196.458 193.564 193.564 196.458 190 196.458 C 186.436 196.458 183.542 193.564 183.542 190 Z " fill-rule="evenodd" fill="rgb(255,243,101)"/><mask id="_mask_S1lUJws0hKDaenNHV97FMlQm7mW2fe8W"><path d=" M 12 190 C 12 91.759 91.759 12 190 12 C 288.241 12 368 91.759 368 190 C 368 288.241 288.241 368 190 368 C 91.759 368 12 288.241 12 190 Z  M 15.56 190 C 15.56 93.724 93.724 15.56 190 15.56 C 286.276 15.56 364.44 93.724 364.44 190 C 364.44 286.276 286.276 364.44 190 364.44 C 93.724 364.44 15.56 286.276 15.56 190 Z  M 19.12 190 C 19.12 95.689 95.689 19.12 190 19.12 C 284.311 19.12 360.88 95.689 360.88 190 C 360.88 284.311 284.311 360.88 190 360.88 C 95.689 360.88 19.12 284.311 19.12 190 Z  M 22.68 190 C 22.68 97.654 97.654 22.68 190 22.68 C 282.346 22.68 357.32 97.654 357.32 190 C 357.32 282.346 282.346 357.32 190 357.32 C 97.654 357.32 22.68 282.346 22.68 190 Z  M 26.24 190 C 26.24 99.618 99.618 26.24 190 26.24 C 280.382 26.24 353.76 99.618 353.76 190 C 353.76 280.382 280.382 353.76 190 353.76 C 99.618 353.76 26.24 280.382 26.24 190 Z  M 29.8 190 C 29.8 101.583 101.583 29.8 190 29.8 C 278.417 29.8 350.2 101.583 350.2 190 C 350.2 278.417 278.417 350.2 190 350.2 C 101.583 350.2 29.8 278.417 29.8 190 Z  M 33.36 190 C 33.36 103.548 103.548 33.36 190 33.36 C 276.452 33.36 346.64 103.548 346.64 190 C 346.64 276.452 276.452 346.64 190 346.64 C 103.548 346.64 33.36 276.452 33.36 190 Z  M 36.92 190 C 36.92 105.513 105.513 36.92 190 36.92 C 274.487 36.92 343.08 105.513 343.08 190 C 343.08 274.487 274.487 343.08 190 343.08 C 105.513 343.08 36.92 274.487 36.92 190 Z  M 40.48 190 C 40.48 107.478 107.478 40.48 190 40.48 C 272.522 40.48 339.52 107.478 339.52 190 C 339.52 272.522 272.522 339.52 190 339.52 C 107.478 339.52 40.48 272.522 40.48 190 Z  M 44.04 190 C 44.04 109.442 109.442 44.04 190 44.04 C 270.558 44.04 335.96 109.442 335.96 190 C 335.96 270.558 270.558 335.96 190 335.96 C 109.442 335.96 44.04 270.558 44.04 190 Z  M 47.6 190 C 47.6 111.407 111.407 47.6 190 47.6 C 268.593 47.6 332.4 111.407 332.4 190 C 332.4 268.593 268.593 332.4 190 332.4 C 111.407 332.4 47.6 268.593 47.6 190 Z  M 51.16 190 C 51.16 113.372 113.372 51.16 190 51.16 C 266.628 51.16 328.84 113.372 328.84 190 C 328.84 266.628 266.628 328.84 190 328.84 C 113.372 328.84 51.16 266.628 51.16 190 Z  M 54.72 190 C 54.72 115.337 115.337 54.72 190 54.72 C 264.663 54.72 325.28 115.337 325.28 190 C 325.28 264.663 264.663 325.28 190 325.28 C 115.337 325.28 54.72 264.663 54.72 190 Z  M 58.28 190 C 58.28 117.302 117.302 58.28 190 58.28 C 262.698 58.28 321.72 117.302 321.72 190 C 321.72 262.698 262.698 321.72 190 321.72 C 117.302 321.72 58.28 262.698 58.28 190 Z  M 61.84 190 C 61.84 119.267 119.267 61.84 190 61.84 C 260.733 61.84 318.16 119.267 318.16 190 C 318.16 260.733 260.733 318.16 190 318.16 C 119.267 318.16 61.84 260.733 61.84 190 Z  M 65.4 190 C 65.4 121.231 121.231 65.4 190 65.4 C 258.769 65.4 314.6 121.231 314.6 190 C 314.6 258.769 258.769 314.6 190 314.6 C 121.231 314.6 65.4 258.769 65.4 190 Z  M 68.96 190 C 68.96 123.196 123.196 68.96 190 68.96 C 256.804 68.96 311.04 123.196 311.04 190 C 311.04 256.804 256.804 311.04 190 311.04 C 123.196 311.04 68.96 256.804 68.96 190 Z  M 72.52 190 C 72.52 125.161 125.161 72.52 190 72.52 C 254.839 72.52 307.48 125.161 307.48 190 C 307.48 254.839 254.839 307.48 190 307.48 C 125.161 307.48 72.52 254.839 72.52 190 Z  M 76.08 190 C 76.08 127.126 127.126 76.08 190 76.08 C 252.874 76.08 303.92 127.126 303.92 190 C 303.92 252.874 252.874 303.92 190 303.92 C 127.126 303.92 76.08 252.874 76.08 190 Z  M 79.64 190 C 79.64 129.091 129.091 79.64 190 79.64 C 250.909 79.64 300.36 129.091 300.36 190 C 300.36 250.909 250.909 300.36 190 300.36 C 129.091 300.36 79.64 250.909 79.64 190 Z  M 83.2 190 C 83.2 131.055 131.055 83.2 190 83.2 C 248.945 83.2 296.8 131.055 296.8 190 C 296.8 248.945 248.945 296.8 190 296.8 C 131.055 296.8 83.2 248.945 83.2 190 Z  M 86.76 190 C 86.76 133.02 133.02 86.76 190 86.76 C 246.98 86.76 293.24 133.02 293.24 190 C 293.24 246.98 246.98 293.24 190 293.24 C 133.02 293.24 86.76 246.98 86.76 190 Z  M 90.32 190 C 90.32 134.985 134.985 90.32 190 90.32 C 245.015 90.32 289.68 134.985 289.68 190 C 289.68 245.015 245.015 289.68 190 289.68 C 134.985 289.68 90.32 245.015 90.32 190 Z  M 93.88 190 C 93.88 136.95 136.95 93.88 190 93.88 C 243.05 93.88 286.12 136.95 286.12 190 C 286.12 243.05 243.05 286.12 190 286.12 C 136.95 286.12 93.88 243.05 93.88 190 Z  M 97.44 190 C 97.44 138.915 138.915 97.44 190 97.44 C 241.085 97.44 282.56 138.915 282.56 190 C 282.56 241.085 241.085 282.56 190 282.56 C 138.915 282.56 97.44 241.085 97.44 190 Z  M 101 190 C 101 140.88 140.88 101 190 101 C 239.12 101 279 140.88 279 190 C 279 239.12 239.12 279 190 279 C 140.88 279 101 239.12 101 190 Z  M 104.56 190 C 104.56 142.844 142.844 104.56 190 104.56 C 237.156 104.56 275.44 142.844 275.44 190 C 275.44 237.156 237.156 275.44 190 275.44 C 142.844 275.44 104.56 237.156 104.56 190 Z  M 108.12 190 C 108.12 144.809 144.809 108.12 190 108.12 C 235.191 108.12 271.88 144.809 271.88 190 C 271.88 235.191 235.191 271.88 190 271.88 C 144.809 271.88 108.12 235.191 108.12 190 Z  M 111.68 190 C 111.68 146.774 146.774 111.68 190 111.68 C 233.226 111.68 268.32 146.774 268.32 190 C 268.32 233.226 233.226 268.32 190 268.32 C 146.774 268.32 111.68 233.226 111.68 190 Z  M 115.24 190 C 115.24 148.739 148.739 115.24 190 115.24 C 231.261 115.24 264.76 148.739 264.76 190 C 264.76 231.261 231.261 264.76 190 264.76 C 148.739 264.76 115.24 231.261 115.24 190 Z  M 118.8 190 C 118.8 150.704 150.704 118.8 190 118.8 C 229.296 118.8 261.2 150.704 261.2 190 C 261.2 229.296 229.296 261.2 190 261.2 C 150.704 261.2 118.8 229.296 118.8 190 Z  M 122.36 190 C 122.36 152.668 152.668 122.36 190 122.36 C 227.332 122.36 257.64 152.668 257.64 190 C 257.64 227.332 227.332 257.64 190 257.64 C 152.668 257.64 122.36 227.332 122.36 190 Z  M 125.92 190 C 125.92 154.633 154.633 125.92 190 125.92 C 225.367 125.92 254.08 154.633 254.08 190 C 254.08 225.367 225.367 254.08 190 254.08 C 154.633 254.08 125.92 225.367 125.92 190 Z  M 129.48 190 C 129.48 156.598 156.598 129.48 190 129.48 C 223.402 129.48 250.52 156.598 250.52 190 C 250.52 223.402 223.402 250.52 190 250.52 C 156.598 250.52 129.48 223.402 129.48 190 Z  M 133.04 190 C 133.04 158.563 158.563 133.04 190 133.04 C 221.437 133.04 246.96 158.563 246.96 190 C 246.96 221.437 221.437 246.96 190 246.96 C 158.563 246.96 133.04 221.437 133.04 190 Z  M 136.6 190 C 136.6 160.528 160.528 136.6 190 136.6 C 219.472 136.6 243.4 160.528 243.4 190 C 243.4 219.472 219.472 243.4 190 243.4 C 160.528 243.4 136.6 219.472 136.6 190 Z  M 140.16 190 C 140.16 162.493 162.493 140.16 190 140.16 C 217.507 140.16 239.84 162.493 239.84 190 C 239.84 217.507 217.507 239.84 190 239.84 C 162.493 239.84 140.16 217.507 140.16 190 Z  M 143.72 190 C 143.72 164.457 164.457 143.72 190 143.72 C 215.543 143.72 236.28 164.457 236.28 190 C 236.28 215.543 215.543 236.28 190 236.28 C 164.457 236.28 143.72 215.543 143.72 190 Z " fill-rule="evenodd" fill="white" stroke="none"/></mask><path d=" M 12 190 C 12 91.759 91.759 12 190 12 C 288.241 12 368 91.759 368 190 C 368 288.241 288.241 368 190 368 C 91.759 368 12 288.241 12 190 Z  M 15.56 190 C 15.56 93.724 93.724 15.56 190 15.56 C 286.276 15.56 364.44 93.724 364.44 190 C 364.44 286.276 286.276 364.44 190 364.44 C 93.724 364.44 15.56 286.276 15.56 190 Z  M 19.12 190 C 19.12 95.689 95.689 19.12 190 19.12 C 284.311 19.12 360.88 95.689 360.88 190 C 360.88 284.311 284.311 360.88 190 360.88 C 95.689 360.88 19.12 284.311 19.12 190 Z  M 22.68 190 C 22.68 97.654 97.654 22.68 190 22.68 C 282.346 22.68 357.32 97.654 357.32 190 C 357.32 282.346 282.346 357.32 190 357.32 C 97.654 357.32 22.68 282.346 22.68 190 Z  M 26.24 190 C 26.24 99.618 99.618 26.24 190 26.24 C 280.382 26.24 353.76 99.618 353.76 190 C 353.76 280.382 280.382 353.76 190 353.76 C 99.618 353.76 26.24 280.382 26.24 190 Z  M 29.8 190 C 29.8 101.583 101.583 29.8 190 29.8 C 278.417 29.8 350.2 101.583 350.2 190 C 350.2 278.417 278.417 350.2 190 350.2 C 101.583 350.2 29.8 278.417 29.8 190 Z  M 33.36 190 C 33.36 103.548 103.548 33.36 190 33.36 C 276.452 33.36 346.64 103.548 346.64 190 C 346.64 276.452 276.452 346.64 190 346.64 C 103.548 346.64 33.36 276.452 33.36 190 Z  M 36.92 190 C 36.92 105.513 105.513 36.92 190 36.92 C 274.487 36.92 343.08 105.513 343.08 190 C 343.08 274.487 274.487 343.08 190 343.08 C 105.513 343.08 36.92 274.487 36.92 190 Z  M 40.48 190 C 40.48 107.478 107.478 40.48 190 40.48 C 272.522 40.48 339.52 107.478 339.52 190 C 339.52 272.522 272.522 339.52 190 339.52 C 107.478 339.52 40.48 272.522 40.48 190 Z  M 44.04 190 C 44.04 109.442 109.442 44.04 190 44.04 C 270.558 44.04 335.96 109.442 335.96 190 C 335.96 270.558 270.558 335.96 190 335.96 C 109.442 335.96 44.04 270.558 44.04 190 Z  M 47.6 190 C 47.6 111.407 111.407 47.6 190 47.6 C 268.593 47.6 332.4 111.407 332.4 190 C 332.4 268.593 268.593 332.4 190 332.4 C 111.407 332.4 47.6 268.593 47.6 190 Z  M 51.16 190 C 51.16 113.372 113.372 51.16 190 51.16 C 266.628 51.16 328.84 113.372 328.84 190 C 328.84 266.628 266.628 328.84 190 328.84 C 113.372 328.84 51.16 266.628 51.16 190 Z  M 54.72 190 C 54.72 115.337 115.337 54.72 190 54.72 C 264.663 54.72 325.28 115.337 325.28 190 C 325.28 264.663 264.663 325.28 190 325.28 C 115.337 325.28 54.72 264.663 54.72 190 Z  M 58.28 190 C 58.28 117.302 117.302 58.28 190 58.28 C 262.698 58.28 321.72 117.302 321.72 190 C 321.72 262.698 262.698 321.72 190 321.72 C 117.302 321.72 58.28 262.698 58.28 190 Z  M 61.84 190 C 61.84 119.267 119.267 61.84 190 61.84 C 260.733 61.84 318.16 119.267 318.16 190 C 318.16 260.733 260.733 318.16 190 318.16 C 119.267 318.16 61.84 260.733 61.84 190 Z  M 65.4 190 C 65.4 121.231 121.231 65.4 190 65.4 C 258.769 65.4 314.6 121.231 314.6 190 C 314.6 258.769 258.769 314.6 190 314.6 C 121.231 314.6 65.4 258.769 65.4 190 Z  M 68.96 190 C 68.96 123.196 123.196 68.96 190 68.96 C 256.804 68.96 311.04 123.196 311.04 190 C 311.04 256.804 256.804 311.04 190 311.04 C 123.196 311.04 68.96 256.804 68.96 190 Z  M 72.52 190 C 72.52 125.161 125.161 72.52 190 72.52 C 254.839 72.52 307.48 125.161 307.48 190 C 307.48 254.839 254.839 307.48 190 307.48 C 125.161 307.48 72.52 254.839 72.52 190 Z  M 76.08 190 C 76.08 127.126 127.126 76.08 190 76.08 C 252.874 76.08 303.92 127.126 303.92 190 C 303.92 252.874 252.874 303.92 190 303.92 C 127.126 303.92 76.08 252.874 76.08 190 Z  M 79.64 190 C 79.64 129.091 129.091 79.64 190 79.64 C 250.909 79.64 300.36 129.091 300.36 190 C 300.36 250.909 250.909 300.36 190 300.36 C 129.091 300.36 79.64 250.909 79.64 190 Z  M 83.2 190 C 83.2 131.055 131.055 83.2 190 83.2 C 248.945 83.2 296.8 131.055 296.8 190 C 296.8 248.945 248.945 296.8 190 296.8 C 131.055 296.8 83.2 248.945 83.2 190 Z  M 86.76 190 C 86.76 133.02 133.02 86.76 190 86.76 C 246.98 86.76 293.24 133.02 293.24 190 C 293.24 246.98 246.98 293.24 190 293.24 C 133.02 293.24 86.76 246.98 86.76 190 Z  M 90.32 190 C 90.32 134.985 134.985 90.32 190 90.32 C 245.015 90.32 289.68 134.985 289.68 190 C 289.68 245.015 245.015 289.68 190 289.68 C 134.985 289.68 90.32 245.015 90.32 190 Z  M 93.88 190 C 93.88 136.95 136.95 93.88 190 93.88 C 243.05 93.88 286.12 136.95 286.12 190 C 286.12 243.05 243.05 286.12 190 286.12 C 136.95 286.12 93.88 243.05 93.88 190 Z  M 97.44 190 C 97.44 138.915 138.915 97.44 190 97.44 C 241.085 97.44 282.56 138.915 282.56 190 C 282.56 241.085 241.085 282.56 190 282.56 C 138.915 282.56 97.44 241.085 97.44 190 Z  M 101 190 C 101 140.88 140.88 101 190 101 C 239.12 101 279 140.88 279 190 C 279 239.12 239.12 279 190 279 C 140.88 279 101 239.12 101 190 Z  M 104.56 190 C 104.56 142.844 142.844 104.56 190 104.56 C 237.156 104.56 275.44 142.844 275.44 190 C 275.44 237.156 237.156 275.44 190 275.44 C 142.844 275.44 104.56 237.156 104.56 190 Z  M 108.12 190 C 108.12 144.809 144.809 108.12 190 108.12 C 235.191 108.12 271.88 144.809 271.88 190 C 271.88 235.191 235.191 271.88 190 271.88 C 144.809 271.88 108.12 235.191 108.12 190 Z  M 111.68 190 C 111.68 146.774 146.774 111.68 190 111.68 C 233.226 111.68 268.32 146.774 268.32 190 C 268.32 233.226 233.226 268.32 190 268.32 C 146.774 268.32 111.68 233.226 111.68 190 Z  M 115.24 190 C 115.24 148.739 148.739 115.24 190 115.24 C 231.261 115.24 264.76 148.739 264.76 190 C 264.76 231.261 231.261 264.76 190 264.76 C 148.739 264.76 115.24 231.261 115.24 190 Z  M 118.8 190 C 118.8 150.704 150.704 118.8 190 118.8 C 229.296 118.8 261.2 150.704 261.2 190 C 261.2 229.296 229.296 261.2 190 261.2 C 150.704 261.2 118.8 229.296 118.8 190 Z  M 122.36 190 C 122.36 152.668 152.668 122.36 190 122.36 C 227.332 122.36 257.64 152.668 257.64 190 C 257.64 227.332 227.332 257.64 190 257.64 C 152.668 257.64 122.36 227.332 122.36 190 Z  M 125.92 190 C 125.92 154.633 154.633 125.92 190 125.92 C 225.367 125.92 254.08 154.633 254.08 190 C 254.08 225.367 225.367 254.08 190 254.08 C 154.633 254.08 125.92 225.367 125.92 190 Z  M 129.48 190 C 129.48 156.598 156.598 129.48 190 129.48 C 223.402 129.48 250.52 156.598 250.52 190 C 250.52 223.402 223.402 250.52 190 250.52 C 156.598 250.52 129.48 223.402 129.48 190 Z  M 133.04 190 C 133.04 158.563 158.563 133.04 190 133.04 C 221.437 133.04 246.96 158.563 246.96 190 C 246.96 221.437 221.437 246.96 190 246.96 C 158.563 246.96 133.04 221.437 133.04 190 Z  M 136.6 190 C 136.6 160.528 160.528 136.6 190 136.6 C 219.472 136.6 243.4 160.528 243.4 190 C 243.4 219.472 219.472 243.4 190 243.4 C 160.528 243.4 136.6 219.472 136.6 190 Z  M 140.16 190 C 140.16 162.493 162.493 140.16 190 140.16 C 217.507 140.16 239.84 162.493 239.84 190 C 239.84 217.507 217.507 239.84 190 239.84 C 162.493 239.84 140.16 217.507 140.16 190 Z  M 143.72 190 C 143.72 164.457 164.457 143.72 190 143.72 C 215.543 143.72 236.28 164.457 236.28 190 C 236.28 215.543 215.543 236.28 190 236.28 C 164.457 236.28 143.72 215.543 143.72 190 Z " fill-rule="evenodd" fill="none"/><path d=" M 12 190 C 12 91.759 91.759 12 190 12 C 288.241 12 368 91.759 368 190 C 368 288.241 288.241 368 190 368 C 91.759 368 12 288.241 12 190 Z  M 15.56 190 C 15.56 93.724 93.724 15.56 190 15.56 C 286.276 15.56 364.44 93.724 364.44 190 C 364.44 286.276 286.276 364.44 190 364.44 C 93.724 364.44 15.56 286.276 15.56 190 Z  M 19.12 190 C 19.12 95.689 95.689 19.12 190 19.12 C 284.311 19.12 360.88 95.689 360.88 190 C 360.88 284.311 284.311 360.88 190 360.88 C 95.689 360.88 19.12 284.311 19.12 190 Z  M 22.68 190 C 22.68 97.654 97.654 22.68 190 22.68 C 282.346 22.68 357.32 97.654 357.32 190 C 357.32 282.346 282.346 357.32 190 357.32 C 97.654 357.32 22.68 282.346 22.68 190 Z  M 26.24 190 C 26.24 99.618 99.618 26.24 190 26.24 C 280.382 26.24 353.76 99.618 353.76 190 C 353.76 280.382 280.382 353.76 190 353.76 C 99.618 353.76 26.24 280.382 26.24 190 Z  M 29.8 190 C 29.8 101.583 101.583 29.8 190 29.8 C 278.417 29.8 350.2 101.583 350.2 190 C 350.2 278.417 278.417 350.2 190 350.2 C 101.583 350.2 29.8 278.417 29.8 190 Z  M 33.36 190 C 33.36 103.548 103.548 33.36 190 33.36 C 276.452 33.36 346.64 103.548 346.64 190 C 346.64 276.452 276.452 346.64 190 346.64 C 103.548 346.64 33.36 276.452 33.36 190 Z  M 36.92 190 C 36.92 105.513 105.513 36.92 190 36.92 C 274.487 36.92 343.08 105.513 343.08 190 C 343.08 274.487 274.487 343.08 190 343.08 C 105.513 343.08 36.92 274.487 36.92 190 Z  M 40.48 190 C 40.48 107.478 107.478 40.48 190 40.48 C 272.522 40.48 339.52 107.478 339.52 190 C 339.52 272.522 272.522 339.52 190 339.52 C 107.478 339.52 40.48 272.522 40.48 190 Z  M 44.04 190 C 44.04 109.442 109.442 44.04 190 44.04 C 270.558 44.04 335.96 109.442 335.96 190 C 335.96 270.558 270.558 335.96 190 335.96 C 109.442 335.96 44.04 270.558 44.04 190 Z  M 47.6 190 C 47.6 111.407 111.407 47.6 190 47.6 C 268.593 47.6 332.4 111.407 332.4 190 C 332.4 268.593 268.593 332.4 190 332.4 C 111.407 332.4 47.6 268.593 47.6 190 Z  M 51.16 190 C 51.16 113.372 113.372 51.16 190 51.16 C 266.628 51.16 328.84 113.372 328.84 190 C 328.84 266.628 266.628 328.84 190 328.84 C 113.372 328.84 51.16 266.628 51.16 190 Z  M 54.72 190 C 54.72 115.337 115.337 54.72 190 54.72 C 264.663 54.72 325.28 115.337 325.28 190 C 325.28 264.663 264.663 325.28 190 325.28 C 115.337 325.28 54.72 264.663 54.72 190 Z  M 58.28 190 C 58.28 117.302 117.302 58.28 190 58.28 C 262.698 58.28 321.72 117.302 321.72 190 C 321.72 262.698 262.698 321.72 190 321.72 C 117.302 321.72 58.28 262.698 58.28 190 Z  M 61.84 190 C 61.84 119.267 119.267 61.84 190 61.84 C 260.733 61.84 318.16 119.267 318.16 190 C 318.16 260.733 260.733 318.16 190 318.16 C 119.267 318.16 61.84 260.733 61.84 190 Z  M 65.4 190 C 65.4 121.231 121.231 65.4 190 65.4 C 258.769 65.4 314.6 121.231 314.6 190 C 314.6 258.769 258.769 314.6 190 314.6 C 121.231 314.6 65.4 258.769 65.4 190 Z  M 68.96 190 C 68.96 123.196 123.196 68.96 190 68.96 C 256.804 68.96 311.04 123.196 311.04 190 C 311.04 256.804 256.804 311.04 190 311.04 C 123.196 311.04 68.96 256.804 68.96 190 Z  M 72.52 190 C 72.52 125.161 125.161 72.52 190 72.52 C 254.839 72.52 307.48 125.161 307.48 190 C 307.48 254.839 254.839 307.48 190 307.48 C 125.161 307.48 72.52 254.839 72.52 190 Z  M 76.08 190 C 76.08 127.126 127.126 76.08 190 76.08 C 252.874 76.08 303.92 127.126 303.92 190 C 303.92 252.874 252.874 303.92 190 303.92 C 127.126 303.92 76.08 252.874 76.08 190 Z  M 79.64 190 C 79.64 129.091 129.091 79.64 190 79.64 C 250.909 79.64 300.36 129.091 300.36 190 C 300.36 250.909 250.909 300.36 190 300.36 C 129.091 300.36 79.64 250.909 79.64 190 Z  M 83.2 190 C 83.2 131.055 131.055 83.2 190 83.2 C 248.945 83.2 296.8 131.055 296.8 190 C 296.8 248.945 248.945 296.8 190 296.8 C 131.055 296.8 83.2 248.945 83.2 190 Z  M 86.76 190 C 86.76 133.02 133.02 86.76 190 86.76 C 246.98 86.76 293.24 133.02 293.24 190 C 293.24 246.98 246.98 293.24 190 293.24 C 133.02 293.24 86.76 246.98 86.76 190 Z  M 90.32 190 C 90.32 134.985 134.985 90.32 190 90.32 C 245.015 90.32 289.68 134.985 289.68 190 C 289.68 245.015 245.015 289.68 190 289.68 C 134.985 289.68 90.32 245.015 90.32 190 Z  M 93.88 190 C 93.88 136.95 136.95 93.88 190 93.88 C 243.05 93.88 286.12 136.95 286.12 190 C 286.12 243.05 243.05 286.12 190 286.12 C 136.95 286.12 93.88 243.05 93.88 190 Z  M 97.44 190 C 97.44 138.915 138.915 97.44 190 97.44 C 241.085 97.44 282.56 138.915 282.56 190 C 282.56 241.085 241.085 282.56 190 282.56 C 138.915 282.56 97.44 241.085 97.44 190 Z  M 101 190 C 101 140.88 140.88 101 190 101 C 239.12 101 279 140.88 279 190 C 279 239.12 239.12 279 190 279 C 140.88 279 101 239.12 101 190 Z  M 104.56 190 C 104.56 142.844 142.844 104.56 190 104.56 C 237.156 104.56 275.44 142.844 275.44 190 C 275.44 237.156 237.156 275.44 190 275.44 C 142.844 275.44 104.56 237.156 104.56 190 Z  M 108.12 190 C 108.12 144.809 144.809 108.12 190 108.12 C 235.191 108.12 271.88 144.809 271.88 190 C 271.88 235.191 235.191 271.88 190 271.88 C 144.809 271.88 108.12 235.191 108.12 190 Z  M 111.68 190 C 111.68 146.774 146.774 111.68 190 111.68 C 233.226 111.68 268.32 146.774 268.32 190 C 268.32 233.226 233.226 268.32 190 268.32 C 146.774 268.32 111.68 233.226 111.68 190 Z  M 115.24 190 C 115.24 148.739 148.739 115.24 190 115.24 C 231.261 115.24 264.76 148.739 264.76 190 C 264.76 231.261 231.261 264.76 190 264.76 C 148.739 264.76 115.24 231.261 115.24 190 Z  M 118.8 190 C 118.8 150.704 150.704 118.8 190 118.8 C 229.296 118.8 261.2 150.704 261.2 190 C 261.2 229.296 229.296 261.2 190 261.2 C 150.704 261.2 118.8 229.296 118.8 190 Z  M 122.36 190 C 122.36 152.668 152.668 122.36 190 122.36 C 227.332 122.36 257.64 152.668 257.64 190 C 257.64 227.332 227.332 257.64 190 257.64 C 152.668 257.64 122.36 227.332 122.36 190 Z  M 125.92 190 C 125.92 154.633 154.633 125.92 190 125.92 C 225.367 125.92 254.08 154.633 254.08 190 C 254.08 225.367 225.367 254.08 190 254.08 C 154.633 254.08 125.92 225.367 125.92 190 Z  M 129.48 190 C 129.48 156.598 156.598 129.48 190 129.48 C 223.402 129.48 250.52 156.598 250.52 190 C 250.52 223.402 223.402 250.52 190 250.52 C 156.598 250.52 129.48 223.402 129.48 190 Z  M 133.04 190 C 133.04 158.563 158.563 133.04 190 133.04 C 221.437 133.04 246.96 158.563 246.96 190 C 246.96 221.437 221.437 246.96 190 246.96 C 158.563 246.96 133.04 221.437 133.04 190 Z  M 136.6 190 C 136.6 160.528 160.528 136.6 190 136.6 C 219.472 136.6 243.4 160.528 243.4 190 C 243.4 219.472 219.472 243.4 190 243.4 C 160.528 243.4 136.6 219.472 136.6 190 Z  M 140.16 190 C 140.16 162.493 162.493 140.16 190 140.16 C 217.507 140.16 239.84 162.493 239.84 190 C 239.84 217.507 217.507 239.84 190 239.84 C 162.493 239.84 140.16 217.507 140.16 190 Z  M 143.72 190 C 143.72 164.457 164.457 143.72 190 143.72 C 215.543 143.72 236.28 164.457 236.28 190 C 236.28 215.543 215.543 236.28 190 236.28 C 164.457 236.28 143.72 215.543 143.72 190 Z " fill-rule="evenodd" fill="none" mask="url(#_mask_S1lUJws0hKDaenNHV97FMlQm7mW2fe8W)" vector-effect="non-scaling-stroke" stroke-width="0.8" stroke="rgb(93,93,93)" stroke-linejoin="miter" stroke-linecap="square" stroke-miterlimit="3"/><path d=" M 180.775 223.496 L 180.775 223.496 L 180.775 223.496 Q 180.905 223.549 181.023 223.631 L 181.023 223.631 L 181.023 223.631 Q 181.14 223.712 181.262 223.784 L 181.262 223.784 L 181.262 223.784 Q 181.556 224.014 181.563 224.363 L 181.563 224.363 L 181.563 224.363 Q 181.577 224.802 181.183 225.256 L 181.183 225.256 L 181.183 225.256 Q 180.789 225.71 180.038 226.373 L 180.038 226.373 L 180.038 226.373 Q 179.903 226.49 179.744 226.64 L 179.744 226.64 L 179.744 226.64 Q 179.584 226.791 179.441 226.926 L 179.441 226.926 L 179.441 226.926 Q 179.72 226.934 180.076 226.832 L 180.076 226.832 L 180.076 226.832 Q 180.432 226.73 180.801 226.624 L 180.801 226.624 L 180.801 226.624 Q 181.039 226.571 181.258 226.694 L 181.258 226.694 L 181.258 226.694 Q 181.478 226.817 181.557 227.045 L 181.557 227.045 L 181.557 227.045 Q 181.61 227.283 181.49 227.494 L 181.49 227.494 L 181.49 227.494 Q 181.371 227.704 181.135 227.801 L 181.135 227.801 L 181.135 227.801 Q 180.8 227.879 180.422 227.982 L 180.422 227.982 L 180.422 227.982 Q 180.044 228.085 179.687 228.111 L 179.687 228.111 L 179.687 228.111 Q 178.769 228.185 178.217 227.74 L 178.217 227.74 L 178.217 227.74 Q 177.944 227.562 177.926 227.187 L 177.926 227.187 L 177.926 227.187 Q 177.901 226.83 178.242 226.451 L 178.242 226.451 L 178.242 226.451 Q 178.582 226.073 179.266 225.468 L 179.266 225.468 L 179.266 225.468 Q 179.45 225.285 179.643 225.105 L 179.643 225.105 L 179.643 225.105 Q 179.837 224.926 180.013 224.761 L 180.013 224.761 L 180.013 224.761 Q 180.063 224.694 180.113 224.65 L 180.113 224.65 L 180.113 224.65 Q 180.164 224.606 180.205 224.559 L 180.205 224.559 L 180.205 224.559 Q 179.794 224.453 178.904 224.485 L 178.904 224.485 L 178.904 224.485 Q 178.014 224.517 176.319 225.005 L 176.319 225.005 L 176.319 225.005 Q 175.413 225.258 174.648 225.537 L 174.648 225.537 L 174.648 225.537 Q 173.883 225.815 173.413 226.01 L 173.413 226.01 L 173.413 226.01 Q 172.943 226.205 172.943 226.205 L 172.943 226.205 L 172.943 226.205 Q 172.614 226.372 172.338 226.149 L 172.338 226.149 L 172.338 226.149 Q 172.198 226.07 172.147 225.93 L 172.147 225.93 L 172.147 225.93 Q 172.097 225.79 172.08 225.675 L 172.08 225.675 L 172.08 225.675 Q 172.058 225.362 172.301 225.063 L 172.301 225.063 L 172.301 225.063 Q 172.544 224.763 173.172 224.135 L 173.172 224.135 L 173.172 224.135 Q 173.382 223.941 173.584 223.743 L 173.584 223.743 L 173.584 223.743 Q 173.785 223.545 173.961 223.38 L 173.961 223.38 L 173.961 223.38 Q 174.01 223.314 174.039 223.271 L 174.039 223.271 L 174.039 223.271 Q 174.067 223.229 174.101 223.199 L 174.101 223.199 L 174.101 223.199 Q 173.727 223.109 173.226 223.194 L 173.226 223.194 L 173.226 223.194 Q 172.726 223.279 172.217 223.437 L 172.217 223.437 L 172.217 223.437 Q 171.708 223.594 171.357 223.708 L 171.357 223.708 L 171.357 223.708 Q 171.104 223.798 170.89 223.688 L 170.89 223.688 L 170.89 223.688 Q 170.675 223.578 170.578 223.342 L 170.578 223.342 L 170.578 223.342 Q 170.507 223.096 170.608 222.879 L 170.608 222.879 L 170.608 222.879 Q 170.709 222.661 170.963 222.571 L 170.963 222.571 L 170.963 222.571 Q 171.742 222.309 172.526 222.114 L 172.526 222.114 L 172.526 222.114 Q 173.31 221.92 173.999 221.956 L 173.999 221.956 L 173.999 221.956 Q 174.687 221.992 175.236 222.392 L 175.236 222.392 L 175.236 222.392 Q 175.478 222.644 175.508 222.938 L 175.508 222.938 L 175.508 222.938 Q 175.512 223.243 175.335 223.538 L 175.335 223.538 L 175.335 223.538 Q 175.159 223.833 174.802 224.226 L 174.802 224.226 L 174.802 224.226 Q 175.081 224.125 175.363 224.047 L 175.363 224.047 L 175.363 224.047 Q 175.644 223.968 175.968 223.865 L 175.968 223.865 L 175.968 223.865 Q 179.353 222.907 180.775 223.496 Z  M 169.446 219.83 L 169.446 219.83 L 169.446 219.83 Q 169.529 219.886 169.568 219.935 L 169.568 219.935 L 169.568 219.935 Q 169.79 220.18 169.804 220.393 L 169.804 220.393 L 169.804 220.393 Q 169.818 220.607 169.795 220.712 L 169.795 220.712 L 169.795 220.712 Q 169.668 221.156 169.207 221.414 L 169.207 221.414 L 169.207 221.414 Q 168.747 221.672 168.142 221.894 L 168.142 221.894 L 168.142 221.894 Q 167.954 221.96 167.757 222.057 L 167.757 222.057 L 167.757 222.057 Q 167.56 222.154 167.416 222.226 L 167.416 222.226 L 167.416 222.226 Q 167.388 222.232 167.321 222.26 L 167.321 222.26 L 167.321 222.26 Q 167.443 222.293 167.629 222.321 L 167.629 222.321 L 167.629 222.321 Q 167.815 222.348 168.087 222.337 L 168.087 222.337 L 168.087 222.337 Q 168.508 222.354 169.035 222.285 L 169.035 222.285 L 169.035 222.285 Q 169.562 222.215 170.123 222.132 L 170.123 222.132 L 170.123 222.132 Q 170.25 222.121 170.397 222.099 L 170.397 222.099 L 170.397 222.099 Q 170.544 222.077 170.683 222.049 L 170.683 222.049 L 170.683 222.049 Q 170.921 222.016 171.124 222.163 L 171.124 222.163 L 171.124 222.163 Q 171.326 222.31 171.349 222.565 L 171.349 222.565 L 171.349 222.565 Q 171.398 222.814 171.243 223.011 L 171.243 223.011 L 171.243 223.011 Q 171.088 223.208 170.849 223.241 L 170.849 223.241 L 170.849 223.241 Q 170.711 223.269 170.564 223.291 L 170.564 223.291 L 170.564 223.291 Q 170.417 223.314 170.289 223.325 L 170.289 223.325 L 170.289 223.325 Q 169.435 223.452 168.647 223.516 L 168.647 223.516 L 168.647 223.516 Q 167.86 223.58 167.216 223.463 L 167.216 223.463 L 167.216 223.463 Q 166.573 223.347 166.195 222.903 L 166.195 222.903 L 166.195 222.903 Q 165.957 222.648 165.937 222.407 L 165.937 222.407 L 165.937 222.407 Q 165.918 222.165 165.979 222.038 L 165.979 222.038 L 165.979 222.038 Q 166.073 221.572 166.561 221.308 L 166.561 221.308 L 166.561 221.308 Q 167.05 221.045 167.704 220.784 L 167.704 220.784 L 167.704 220.784 Q 167.76 220.773 167.851 220.726 L 167.851 220.726 L 167.851 220.726 Q 167.943 220.679 168.037 220.646 L 168.037 220.646 L 168.037 220.646 Q 167.721 220.579 167.222 220.462 L 167.222 220.462 L 167.222 220.462 Q 166.722 220.346 166.012 220.185 L 166.012 220.185 L 166.012 220.185 Q 165.752 220.108 165.63 219.894 L 165.63 219.894 L 165.63 219.894 Q 165.507 219.68 165.574 219.436 L 165.574 219.436 L 165.574 219.436 Q 165.613 219.198 165.832 219.067 L 165.832 219.067 L 165.832 219.067 Q 166.051 218.937 166.29 218.976 L 166.29 218.976 L 166.29 218.976 Q 166.944 219.148 167.477 219.287 L 167.477 219.287 L 167.477 219.287 Q 168.009 219.425 168.386 219.508 L 168.386 219.508 L 168.386 219.508 Q 168.597 219.553 168.75 219.594 L 168.75 219.594 L 168.75 219.594 Q 168.902 219.636 169.024 219.669 L 169.024 219.669 L 169.024 219.669 Q 169.163 219.714 169.263 219.744 L 169.263 219.744 L 169.263 219.744 Q 169.363 219.775 169.446 219.83 Z  M 162.277 212.687 L 162.277 212.687 L 162.277 212.687 Q 162.366 212.796 162.411 212.914 L 162.411 212.914 L 162.411 212.914 Q 162.59 213.258 162.397 213.623 L 162.397 213.623 L 162.397 213.623 Q 162.21 213.931 161.765 214.051 L 161.765 214.051 L 161.765 214.051 Q 161.32 214.17 160.715 214.252 L 160.715 214.252 L 160.715 214.252 Q 160.499 214.273 160.283 214.308 L 160.283 214.308 L 160.283 214.308 Q 160.066 214.344 159.892 214.383 L 159.892 214.383 L 159.892 214.383 Q 159.82 214.39 159.768 214.406 L 159.768 214.406 L 159.768 214.406 Q 159.717 214.423 159.673 214.432 L 159.673 214.432 L 159.673 214.432 Q 159.976 214.96 160.516 215.539 L 160.516 215.539 L 160.516 215.539 Q 161.055 216.119 161.877 216.712 L 161.877 216.712 L 161.877 216.712 Q 162.592 217.238 163.49 217.782 L 163.49 217.782 L 163.49 217.782 Q 164.388 218.326 165.457 218.873 L 165.457 218.873 L 165.457 218.873 Q 165.658 218.992 165.736 219.213 L 165.736 219.213 L 165.736 219.213 Q 165.813 219.434 165.706 219.651 L 165.706 219.651 L 165.706 219.651 Q 165.612 219.883 165.355 219.964 L 165.355 219.964 L 165.355 219.964 Q 165.099 220.045 164.897 219.926 L 164.897 219.926 L 164.897 219.926 Q 163.801 219.376 162.862 218.814 L 162.862 218.814 L 162.862 218.814 Q 161.923 218.252 161.17 217.679 L 161.17 217.679 L 161.17 217.679 Q 159.131 216.169 158.468 214.696 L 158.468 214.696 L 158.468 214.696 Q 158.269 214.264 158.495 213.846 L 158.495 213.846 L 158.495 213.846 Q 158.722 213.428 159.304 213.287 L 159.304 213.287 L 159.304 213.287 Q 159.887 213.146 160.563 213.057 L 160.563 213.057 L 160.563 213.057 Q 160.607 213.047 160.679 213.04 L 160.679 213.04 L 160.679 213.04 Q 160.751 213.033 160.838 213.013 L 160.838 213.013 L 160.838 213.013 Q 160.469 212.721 159.667 212.215 L 159.667 212.215 L 159.667 212.215 Q 158.864 211.709 157.414 210.854 L 157.414 210.854 L 157.414 210.854 Q 157.213 210.734 157.152 210.487 L 157.152 210.487 L 157.152 210.487 Q 157.092 210.239 157.227 210.025 L 157.227 210.025 L 157.227 210.025 Q 157.333 209.808 157.575 209.74 L 157.575 209.74 L 157.575 209.74 Q 157.816 209.672 158.058 209.809 L 158.058 209.809 L 158.058 209.809 Q 158.889 210.318 159.571 210.741 L 159.571 210.741 L 159.571 210.741 Q 160.254 211.165 160.774 211.515 L 160.774 211.515 L 160.774 211.515 Q 161.466 211.981 161.802 212.249 L 161.802 212.249 L 161.802 212.249 Q 162.138 212.517 162.277 212.687 Z  M 159.648 206.815 L 159.648 206.815 L 159.648 206.815 Q 159.701 206.944 159.727 207.085 L 159.727 207.085 L 159.727 207.085 Q 159.753 207.226 159.788 207.363 L 159.788 207.363 L 159.788 207.363 Q 159.833 207.734 159.591 207.986 L 159.591 207.986 L 159.591 207.986 Q 159.29 208.305 158.691 208.347 L 158.691 208.347 L 158.691 208.347 Q 158.092 208.39 157.092 208.328 L 157.092 208.328 L 157.092 208.328 Q 156.914 208.315 156.694 208.309 L 156.694 208.309 L 156.694 208.309 Q 156.475 208.302 156.278 208.297 L 156.278 208.297 L 156.278 208.297 Q 156.47 208.499 156.794 208.679 L 156.794 208.679 L 156.794 208.679 Q 157.117 208.859 157.454 209.044 L 157.454 209.044 L 157.454 209.044 Q 157.659 209.175 157.727 209.418 L 157.727 209.418 L 157.727 209.418 Q 157.795 209.66 157.69 209.877 L 157.69 209.877 L 157.69 209.877 Q 157.559 210.083 157.326 210.147 L 157.326 210.147 L 157.326 210.147 Q 157.093 210.211 156.857 210.113 L 156.857 210.113 L 156.857 210.113 Q 156.565 209.931 156.225 209.737 L 156.225 209.737 L 156.225 209.737 Q 155.885 209.542 155.614 209.308 L 155.614 209.308 L 155.614 209.308 Q 154.913 208.711 154.837 208.006 L 154.837 208.006 L 154.837 208.006 Q 154.77 207.687 155.023 207.41 L 155.023 207.41 L 155.023 207.41 Q 155.258 207.139 155.766 207.113 L 155.766 207.113 L 155.766 207.113 Q 156.275 207.086 157.185 207.142 L 157.185 207.142 L 157.185 207.142 Q 157.445 207.142 157.709 207.152 L 157.709 207.152 L 157.709 207.152 Q 157.973 207.162 158.214 207.17 L 158.214 207.17 L 158.214 207.17 Q 158.296 207.158 158.363 207.163 L 158.363 207.163 L 158.363 207.163 Q 158.43 207.168 158.493 207.163 L 158.493 207.163 L 158.493 207.163 Q 158.277 206.798 157.625 206.191 L 157.625 206.191 L 157.625 206.191 Q 156.973 205.584 155.429 204.73 L 155.429 204.73 L 155.429 204.73 Q 154.61 204.269 153.872 203.925 L 153.872 203.925 L 153.872 203.925 Q 153.135 203.581 152.664 203.386 L 152.664 203.386 L 152.664 203.386 Q 152.194 203.191 152.194 203.191 L 152.194 203.191 L 152.194 203.191 Q 151.843 203.077 151.806 202.724 L 151.806 202.724 L 151.806 202.724 Q 151.763 202.569 151.826 202.434 L 151.826 202.434 L 151.826 202.434 Q 151.89 202.3 151.959 202.206 L 151.959 202.206 L 151.959 202.206 Q 152.164 201.97 152.548 201.93 L 152.548 201.93 L 152.548 201.93 Q 152.932 201.89 153.82 201.89 L 153.82 201.89 L 153.82 201.89 Q 154.106 201.901 154.388 201.904 L 154.388 201.904 L 154.388 201.904 Q 154.67 201.906 154.912 201.914 L 154.912 201.914 L 154.912 201.914 Q 154.994 201.902 155.044 201.892 L 155.044 201.892 L 155.044 201.892 Q 155.094 201.882 155.138 201.885 L 155.138 201.885 L 155.138 201.885 Q 154.937 201.557 154.523 201.263 L 154.523 201.263 L 154.523 201.263 Q 154.109 200.969 153.638 200.72 L 153.638 200.72 L 153.638 200.72 Q 153.167 200.472 152.838 200.305 L 152.838 200.305 L 152.838 200.305 Q 152.596 200.189 152.522 199.96 L 152.522 199.96 L 152.522 199.96 Q 152.449 199.73 152.546 199.495 L 152.546 199.495 L 152.546 199.495 Q 152.67 199.271 152.896 199.188 L 152.896 199.188 L 152.896 199.188 Q 153.121 199.105 153.364 199.221 L 153.364 199.221 L 153.364 199.221 Q 154.1 199.588 154.792 200.004 L 154.792 200.004 L 154.792 200.004 Q 155.484 200.421 155.946 200.934 L 155.946 200.934 L 155.946 200.934 Q 156.407 201.446 156.512 202.117 L 156.512 202.117 L 156.512 202.117 Q 156.505 202.467 156.318 202.695 L 156.318 202.695 L 156.318 202.695 Q 156.105 202.913 155.772 202.997 L 155.772 202.997 L 155.772 202.997 Q 155.439 203.081 154.908 203.106 L 154.908 203.106 L 154.908 203.106 Q 155.177 203.233 155.431 203.377 L 155.431 203.377 L 155.431 203.377 Q 155.685 203.52 155.988 203.676 L 155.988 203.676 L 155.988 203.676 Q 159.058 205.392 159.648 206.815 Z  M 156.057 196.965 L 156.057 196.965 L 156.057 196.965 Q 156.071 197.105 156.054 197.247 L 156.054 197.247 L 156.054 197.247 Q 156.038 197.389 156.032 197.531 L 156.032 197.531 L 156.032 197.531 Q 155.969 197.899 155.664 198.07 L 155.664 198.07 L 155.664 198.07 Q 155.284 198.288 154.698 198.156 L 154.698 198.156 L 154.698 198.156 Q 154.112 198.023 153.173 197.674 L 153.173 197.674 L 153.173 197.674 Q 153.005 197.61 152.798 197.54 L 152.798 197.54 L 152.798 197.54 Q 152.59 197.471 152.403 197.409 L 152.403 197.409 L 152.403 197.409 Q 152.528 197.658 152.785 197.924 L 152.785 197.924 L 152.785 197.924 Q 153.043 198.189 153.311 198.464 L 153.311 198.464 L 153.311 198.464 Q 153.47 198.649 153.465 198.901 L 153.465 198.901 L 153.465 198.901 Q 153.46 199.153 153.297 199.33 L 153.297 199.33 L 153.297 199.33 Q 153.112 199.489 152.87 199.483 L 152.87 199.483 L 152.87 199.483 Q 152.628 199.477 152.431 199.315 L 152.431 199.315 L 152.431 199.315 Q 152.205 199.056 151.935 198.772 L 151.935 198.772 L 151.935 198.772 Q 151.666 198.487 151.475 198.184 L 151.475 198.184 L 151.475 198.184 Q 150.976 197.41 151.108 196.713 L 151.108 196.713 L 151.108 196.713 Q 151.136 196.389 151.458 196.196 L 151.458 196.196 L 151.458 196.196 Q 151.761 196.005 152.255 196.127 L 152.255 196.127 L 152.255 196.127 Q 152.75 196.249 153.605 196.566 L 153.605 196.566 L 153.605 196.566 Q 153.854 196.642 154.104 196.727 L 154.104 196.727 L 154.104 196.727 Q 154.353 196.813 154.582 196.891 L 154.582 196.891 L 154.582 196.891 Q 154.664 196.903 154.726 196.927 L 154.726 196.927 L 154.726 196.927 Q 154.789 196.951 154.851 196.965 L 154.851 196.965 L 154.851 196.965 Q 154.749 196.553 154.301 195.783 L 154.301 195.783 L 154.301 195.783 Q 153.853 195.014 152.622 193.749 L 152.622 193.749 L 152.622 193.749 Q 151.972 193.07 151.365 192.527 L 151.365 192.527 L 151.365 192.527 Q 150.758 191.985 150.365 191.662 L 150.365 191.662 L 150.365 191.662 Q 149.971 191.34 149.971 191.34 L 149.971 191.34 L 149.971 191.34 Q 149.668 191.128 149.734 190.78 L 149.734 190.78 L 149.734 190.78 Q 149.738 190.619 149.838 190.509 L 149.838 190.509 L 149.838 190.509 Q 149.937 190.398 150.031 190.329 L 150.031 190.329 L 150.031 190.329 Q 150.296 190.162 150.675 190.234 L 150.675 190.234 L 150.675 190.234 Q 151.054 190.307 151.904 190.565 L 151.904 190.565 L 151.904 190.565 Q 152.174 190.658 152.444 190.742 L 152.444 190.742 L 152.444 190.742 Q 152.713 190.826 152.942 190.904 L 152.942 190.904 L 152.942 190.904 Q 153.024 190.916 153.074 190.921 L 153.074 190.921 L 153.074 190.921 Q 153.125 190.926 153.167 190.942 L 153.167 190.942 L 153.167 190.942 Q 153.07 190.569 152.759 190.168 L 152.759 190.168 L 152.759 190.168 Q 152.447 189.767 152.068 189.393 L 152.068 189.393 L 152.068 189.393 Q 151.69 189.018 151.423 188.763 L 151.423 188.763 L 151.423 188.763 Q 151.224 188.582 151.22 188.341 L 151.22 188.341 L 151.22 188.341 Q 151.217 188.1 151.378 187.904 L 151.378 187.904 L 151.378 187.904 Q 151.561 187.725 151.801 187.711 L 151.801 187.711 L 151.801 187.711 Q 152.041 187.697 152.24 187.878 L 152.24 187.878 L 152.24 187.878 Q 152.838 188.442 153.38 189.041 L 153.38 189.041 L 153.38 189.041 Q 153.922 189.641 154.215 190.265 L 154.215 190.265 L 154.215 190.265 Q 154.508 190.889 154.414 191.561 L 154.414 191.561 L 154.414 191.561 Q 154.307 191.894 154.062 192.059 L 154.062 192.059 L 154.062 192.059 Q 153.795 192.206 153.452 192.19 L 153.452 192.19 L 153.452 192.19 Q 153.108 192.173 152.593 192.044 L 152.593 192.044 L 152.593 192.044 Q 152.814 192.243 153.016 192.454 L 153.016 192.454 L 153.016 192.454 Q 153.218 192.665 153.462 192.902 L 153.462 192.902 L 153.462 192.902 Q 155.904 195.433 156.057 196.965 Z  M 196.955 223.701 L 196.955 223.701 L 196.955 223.701 Q 197.053 223.681 197.153 223.672 L 197.153 223.672 L 197.153 223.672 Q 197.253 223.662 197.375 223.658 L 197.375 223.658 L 197.375 223.658 Q 197.626 223.689 197.834 223.913 L 197.834 223.913 L 197.834 223.913 Q 197.944 224.054 197.998 224.329 L 197.998 224.329 L 197.998 224.329 Q 198.053 224.603 198.002 225.266 L 198.002 225.266 L 198.002 225.266 Q 197.951 225.929 197.806 227.243 L 197.806 227.243 L 197.806 227.243 Q 198.206 227 198.722 226.672 L 198.722 226.672 L 198.722 226.672 Q 199.238 226.345 199.783 226.011 L 199.783 226.011 L 199.783 226.011 Q 199.983 225.89 200.23 225.953 L 200.23 225.953 L 200.23 225.953 Q 200.477 226.015 200.622 226.231 L 200.622 226.231 L 200.622 226.231 Q 200.744 226.431 200.681 226.678 L 200.681 226.678 L 200.681 226.678 Q 200.618 226.925 200.403 227.07 L 200.403 227.07 L 200.403 227.07 Q 199.622 227.553 198.942 227.974 L 198.942 227.974 L 198.942 227.974 Q 198.261 228.396 197.826 228.667 L 197.826 228.667 L 197.826 228.667 Q 197.39 228.937 197.39 228.937 L 197.39 228.937 L 197.39 228.937 Q 197.21 229.055 197.022 229.031 L 197.022 229.031 L 197.022 229.031 Q 196.755 229.024 196.59 228.812 L 196.59 228.812 L 196.59 228.812 Q 196.457 228.655 196.459 228.512 L 196.459 228.512 L 196.459 228.512 Q 196.461 228.368 196.469 228.204 L 196.469 228.204 L 196.469 228.204 Q 196.492 228.117 196.494 228.025 L 196.494 228.025 L 196.494 228.025 Q 196.496 227.933 196.512 227.808 L 196.512 227.808 L 196.512 227.808 Q 196.582 227.447 196.633 226.937 L 196.633 226.937 L 196.633 226.937 Q 196.684 226.427 196.743 225.905 L 196.743 225.905 L 196.743 225.905 Q 196.786 225.611 196.806 225.403 L 196.806 225.403 L 196.806 225.403 Q 196.826 225.195 196.834 225.031 L 196.834 225.031 L 196.834 225.031 Q 196.477 225.184 195.845 225.697 L 195.845 225.697 L 195.845 225.697 Q 195.304 226.152 194.696 226.733 L 194.696 226.733 L 194.696 226.733 Q 194.088 227.313 193.46 227.949 L 193.46 227.949 L 193.46 227.949 Q 193.323 228.078 193.176 228.209 L 193.176 228.209 L 193.176 228.209 Q 193.029 228.341 192.915 228.486 L 192.915 228.486 L 192.915 228.486 Q 192.727 228.666 192.472 228.666 L 192.472 228.666 L 192.472 228.666 Q 192.217 228.666 192.036 228.478 L 192.036 228.478 L 192.036 228.478 Q 191.86 228.309 191.862 228.064 L 191.862 228.064 L 191.862 228.064 Q 191.864 227.819 192.052 227.639 L 192.052 227.639 L 192.052 227.639 Q 192.185 227.49 192.331 227.348 L 192.331 227.348 L 192.331 227.348 Q 192.476 227.207 192.629 227.054 L 192.629 227.054 L 192.629 227.054 Q 193.276 226.415 193.892 225.823 L 193.892 225.823 L 193.892 225.823 Q 194.508 225.23 195.068 224.772 L 195.068 224.772 L 195.068 224.772 Q 196.21 223.85 196.955 223.701 Z  M 213.38 163.024 L 213.38 163.024 L 213.38 163.024 Q 213.272 162.936 213.204 162.829 L 213.204 162.829 L 213.204 162.829 Q 212.961 162.526 213.078 162.131 L 213.078 162.131 L 213.078 162.131 Q 213.201 161.792 213.614 161.587 L 213.614 161.587 L 213.614 161.587 Q 214.027 161.383 214.604 161.183 L 214.604 161.183 L 214.604 161.183 Q 214.811 161.12 215.016 161.043 L 215.016 161.043 L 215.016 161.043 Q 215.222 160.965 215.385 160.892 L 215.385 160.892 L 215.385 160.892 Q 215.454 160.871 215.501 160.845 L 215.501 160.845 L 215.501 160.845 Q 215.548 160.819 215.589 160.801 L 215.589 160.801 L 215.589 160.801 Q 215.189 160.343 214.546 159.882 L 214.546 159.882 L 214.546 159.882 Q 213.903 159.42 212.98 159 L 212.98 159 L 212.98 159 Q 212.175 158.625 211.188 158.268 L 211.188 158.268 L 211.188 158.268 Q 210.2 157.912 209.045 157.586 L 209.045 157.586 L 209.045 157.586 Q 208.824 157.508 208.705 157.307 L 208.705 157.307 L 208.705 157.307 Q 208.585 157.106 208.647 156.872 L 208.647 156.872 L 208.647 156.872 Q 208.694 156.626 208.93 156.496 L 208.93 156.496 L 208.93 156.496 Q 209.165 156.366 209.386 156.443 L 209.386 156.443 L 209.386 156.443 Q 210.569 156.766 211.601 157.133 L 211.601 157.133 L 211.601 157.133 Q 212.632 157.499 213.483 157.912 L 213.483 157.912 L 213.483 157.912 Q 215.779 158.991 216.72 160.305 L 216.72 160.305 L 216.72 160.305 Q 216.999 160.689 216.86 161.144 L 216.86 161.144 L 216.86 161.144 Q 216.72 161.598 216.177 161.851 L 216.177 161.851 L 216.177 161.851 Q 215.634 162.104 214.988 162.325 L 214.988 162.325 L 214.988 162.325 Q 214.947 162.343 214.878 162.364 L 214.878 162.364 L 214.878 162.364 Q 214.809 162.385 214.727 162.422 L 214.727 162.422 L 214.727 162.422 Q 215.146 162.636 216.033 162.974 L 216.033 162.974 L 216.033 162.974 Q 216.919 163.312 218.509 163.865 L 218.509 163.865 L 218.509 163.865 Q 218.73 163.942 218.838 164.173 L 218.838 164.173 L 218.838 164.173 Q 218.946 164.404 218.856 164.64 L 218.856 164.64 L 218.856 164.64 Q 218.794 164.874 218.571 164.988 L 218.571 164.988 L 218.571 164.988 Q 218.348 165.103 218.083 165.016 L 218.083 165.016 L 218.083 165.016 Q 217.169 164.68 216.416 164.4 L 216.416 164.4 L 216.416 164.4 Q 215.663 164.119 215.085 163.878 L 215.085 163.878 L 215.085 163.878 Q 214.314 163.557 213.932 163.36 L 213.932 163.36 L 213.932 163.36 Q 213.55 163.164 213.38 163.024 Z  M 221.012 172.316 L 221.012 172.316 L 221.012 172.316 Q 220.946 172.192 220.925 172.068 L 220.925 172.068 L 220.925 172.068 Q 220.816 171.695 221.076 171.375 L 221.076 171.375 L 221.076 171.375 Q 221.32 171.109 221.78 171.079 L 221.78 171.079 L 221.78 171.079 Q 222.24 171.049 222.849 171.086 L 222.849 171.086 L 222.849 171.086 Q 223.065 171.107 223.284 171.115 L 223.284 171.115 L 223.284 171.115 Q 223.503 171.122 223.682 171.118 L 223.682 171.118 L 223.682 171.118 Q 223.754 171.125 223.807 171.119 L 223.807 171.119 L 223.807 171.119 Q 223.861 171.113 223.906 171.112 L 223.906 171.112 L 223.906 171.112 Q 223.711 170.535 223.295 169.862 L 223.295 169.862 L 223.295 169.862 Q 222.879 169.188 222.189 168.446 L 222.189 168.446 L 222.189 168.446 Q 221.59 167.791 220.815 167.082 L 220.815 167.082 L 220.815 167.082 Q 220.04 166.374 219.099 165.629 L 219.099 165.629 L 219.099 165.629 Q 218.925 165.473 218.892 165.241 L 218.892 165.241 L 218.892 165.241 Q 218.859 165.009 219.006 164.817 L 219.006 164.817 L 219.006 164.817 Q 219.143 164.608 219.411 164.579 L 219.411 164.579 L 219.411 164.579 Q 219.679 164.549 219.853 164.706 L 219.853 164.706 L 219.853 164.706 Q 220.821 165.458 221.632 166.193 L 221.632 166.193 L 221.632 166.193 Q 222.444 166.927 223.071 167.635 L 223.071 167.635 L 223.071 167.635 Q 224.776 169.514 225.14 171.088 L 225.14 171.088 L 225.14 171.088 Q 225.251 171.55 224.947 171.916 L 224.947 171.916 L 224.947 171.916 Q 224.644 172.282 224.045 172.307 L 224.045 172.307 L 224.045 172.307 Q 223.446 172.332 222.765 172.287 L 222.765 172.287 L 222.765 172.287 Q 222.72 172.288 222.648 172.281 L 222.648 172.281 L 222.648 172.281 Q 222.577 172.274 222.487 172.277 L 222.487 172.277 L 222.487 172.277 Q 222.792 172.636 223.48 173.288 L 223.48 173.288 L 223.48 173.288 Q 224.169 173.941 225.424 175.062 L 225.424 175.062 L 225.424 175.062 Q 225.598 175.219 225.61 175.473 L 225.61 175.473 L 225.61 175.473 Q 225.621 175.728 225.447 175.911 L 225.447 175.911 L 225.447 175.911 Q 225.3 176.103 225.05 176.123 L 225.05 176.123 L 225.05 176.123 Q 224.8 176.143 224.589 175.961 L 224.589 175.961 L 224.589 175.961 Q 223.874 175.3 223.286 174.752 L 223.286 174.752 L 223.286 174.752 Q 222.699 174.204 222.258 173.759 L 222.258 173.759 L 222.258 173.759 Q 221.67 173.166 221.393 172.838 L 221.393 172.838 L 221.393 172.838 Q 221.115 172.51 221.012 172.316 Z  M 224.415 179.124 L 224.415 179.124 L 224.415 179.124 Q 224.385 179.028 224.387 178.965 L 224.387 178.965 L 224.387 178.965 Q 224.371 178.635 224.495 178.462 L 224.495 178.462 L 224.495 178.462 Q 224.62 178.288 224.704 178.22 L 224.704 178.22 L 224.704 178.22 Q 225.085 177.959 225.604 178.051 L 225.604 178.051 L 225.604 178.051 Q 226.124 178.144 226.732 178.357 L 226.732 178.357 L 226.732 178.357 Q 226.92 178.425 227.133 178.475 L 227.133 178.475 L 227.133 178.475 Q 227.347 178.525 227.504 178.561 L 227.504 178.561 L 227.504 178.561 Q 227.529 178.574 227.598 178.595 L 227.598 178.595 L 227.598 178.595 Q 227.525 178.492 227.399 178.352 L 227.399 178.352 L 227.399 178.352 Q 227.273 178.213 227.056 178.049 L 227.056 178.049 L 227.056 178.049 Q 226.741 177.769 226.29 177.488 L 226.29 177.488 L 226.29 177.488 Q 225.838 177.207 225.353 176.915 L 225.353 176.915 L 225.353 176.915 Q 225.247 176.843 225.119 176.767 L 225.119 176.767 L 225.119 176.767 Q 224.992 176.691 224.867 176.624 L 224.867 176.624 L 224.867 176.624 Q 224.662 176.498 224.598 176.256 L 224.598 176.256 L 224.598 176.256 Q 224.535 176.014 224.68 175.803 L 224.68 175.803 L 224.68 175.803 Q 224.8 175.578 225.045 175.525 L 225.045 175.525 L 225.045 175.525 Q 225.29 175.471 225.495 175.597 L 225.495 175.597 L 225.495 175.597 Q 225.62 175.663 225.748 175.74 L 225.748 175.74 L 225.748 175.74 Q 225.876 175.816 225.981 175.888 L 225.981 175.888 L 225.981 175.888 Q 226.722 176.332 227.371 176.783 L 227.371 176.783 L 227.371 176.783 Q 228.021 177.233 228.444 177.732 L 228.444 177.732 L 228.444 177.732 Q 228.867 178.23 228.877 178.812 L 228.877 178.812 L 228.877 178.812 Q 228.899 179.161 228.761 179.36 L 228.761 179.36 L 228.761 179.36 Q 228.623 179.559 228.495 179.618 L 228.495 179.618 L 228.495 179.618 Q 228.126 179.919 227.582 179.812 L 227.582 179.812 L 227.582 179.812 Q 227.037 179.706 226.366 179.492 L 226.366 179.492 L 226.366 179.492 Q 226.316 179.465 226.215 179.444 L 226.215 179.444 L 226.215 179.444 Q 226.115 179.422 226.021 179.388 L 226.021 179.388 L 226.021 179.388 Q 226.223 179.64 226.535 180.047 L 226.535 180.047 L 226.535 180.047 Q 226.847 180.454 227.293 181.029 L 227.293 181.029 L 227.293 181.029 Q 227.445 181.254 227.404 181.497 L 227.404 181.497 L 227.404 181.497 Q 227.363 181.739 227.156 181.886 L 227.156 181.886 L 227.156 181.886 Q 226.975 182.045 226.723 182.007 L 226.723 182.007 L 226.723 182.007 Q 226.471 181.969 226.311 181.787 L 226.311 181.787 L 226.311 181.787 Q 225.915 181.239 225.591 180.794 L 225.591 180.794 L 225.591 180.794 Q 225.268 180.349 225.029 180.045 L 225.029 180.045 L 225.029 180.045 Q 224.894 179.877 224.803 179.748 L 224.803 179.748 L 224.803 179.748 Q 224.711 179.619 224.638 179.516 L 224.638 179.516 L 224.638 179.516 Q 224.559 179.393 224.501 179.306 L 224.501 179.306 L 224.501 179.306 Q 224.444 179.219 224.415 179.124 Z  M 225.339 186.642 L 225.339 186.642 L 225.339 186.642 Q 225.315 186.403 225.438 186.23 L 225.438 186.23 L 225.438 186.23 Q 225.665 185.886 226.077 185.985 L 226.077 185.985 L 226.077 185.985 Q 226.097 185.983 226.57 186.087 L 226.57 186.087 L 226.57 186.087 Q 227.042 186.191 227.639 186.333 L 227.639 186.333 L 227.639 186.333 Q 227.988 186.399 228.244 186.453 L 228.244 186.453 L 228.244 186.453 Q 228.501 186.508 228.706 186.548 L 228.706 186.548 L 228.706 186.548 Q 228.453 186.031 228.088 185.283 L 228.088 185.283 L 228.088 185.283 Q 227.722 184.536 227.32 183.721 L 227.32 183.721 L 227.32 183.721 Q 226.917 182.907 226.54 182.141 L 226.54 182.141 L 226.54 182.141 Q 226.438 181.93 226.525 181.69 L 226.525 181.69 L 226.525 181.69 Q 226.612 181.45 226.841 181.327 L 226.841 181.327 L 226.841 181.327 Q 227.052 181.226 227.291 181.312 L 227.291 181.312 L 227.291 181.312 Q 227.531 181.399 227.654 181.628 L 227.654 181.628 L 227.654 181.628 Q 228.062 182.492 228.505 183.413 L 228.505 183.413 L 228.505 183.413 Q 228.948 184.333 229.338 185.119 L 229.338 185.119 L 229.338 185.119 Q 229.727 185.904 229.978 186.402 L 229.978 186.402 L 229.978 186.402 Q 230.228 186.899 230.228 186.899 L 230.228 186.899 L 230.228 186.899 Q 230.258 186.997 230.278 187.096 L 230.278 187.096 L 230.278 187.096 Q 230.298 187.194 230.266 187.278 L 230.266 187.278 L 230.266 187.278 Q 230.254 187.56 229.987 187.707 L 229.987 187.707 L 229.987 187.707 Q 229.837 187.823 229.588 187.837 L 229.588 187.837 L 229.588 187.837 Q 229.338 187.852 228.87 187.798 L 228.87 187.798 L 228.87 187.798 Q 228.606 187.764 228.288 187.705 L 228.288 187.705 L 228.288 187.705 Q 227.971 187.646 227.559 187.547 L 227.559 187.547 L 227.559 187.547 Q 227.477 187.535 227.416 187.521 L 227.416 187.521 L 227.416 187.521 Q 227.354 187.507 227.272 187.495 L 227.272 187.495 L 227.272 187.495 Q 227.789 188.247 228.382 189.354 L 228.382 189.354 L 228.382 189.354 Q 228.503 189.563 228.436 189.801 L 228.436 189.801 L 228.436 189.801 Q 228.369 190.039 228.158 190.14 L 228.158 190.14 L 228.158 190.14 Q 227.951 190.281 227.703 190.205 L 227.703 190.205 L 227.703 190.205 Q 227.454 190.13 227.333 189.921 L 227.333 189.921 L 227.333 189.921 Q 226.846 189.064 226.417 188.394 L 226.417 188.394 L 226.417 188.394 Q 225.989 187.723 225.728 187.326 L 225.728 187.326 L 225.728 187.326 Q 225.468 186.93 225.468 186.93 L 225.468 186.93 L 225.468 186.93 Q 225.356 186.821 225.339 186.642 Z  M 225.013 197.034 L 225.013 197.034 L 225.013 197.034 Q 225.041 196.896 225.104 196.787 L 225.104 196.787 L 225.104 196.787 Q 225.257 196.43 225.661 196.347 L 225.661 196.347 L 225.661 196.347 Q 226.018 196.296 226.392 196.565 L 226.392 196.565 L 226.392 196.565 Q 226.767 196.834 227.214 197.249 L 227.214 197.249 L 227.214 197.249 Q 227.367 197.402 227.532 197.547 L 227.532 197.547 L 227.532 197.547 Q 227.696 197.692 227.838 197.802 L 227.838 197.802 L 227.838 197.802 Q 227.889 197.853 227.934 197.883 L 227.934 197.883 L 227.934 197.883 Q 227.979 197.912 228.014 197.94 L 228.014 197.94 L 228.014 197.94 Q 228.23 197.371 228.336 196.586 L 228.336 196.586 L 228.336 196.586 Q 228.441 195.802 228.379 194.79 L 228.379 194.79 L 228.379 194.79 Q 228.332 193.903 228.182 192.864 L 228.182 192.864 L 228.182 192.864 Q 228.033 191.825 227.778 190.652 L 227.778 190.652 L 227.778 190.652 Q 227.743 190.421 227.865 190.22 L 227.865 190.22 L 227.865 190.22 Q 227.986 190.02 228.222 189.965 L 228.222 189.965 L 228.222 189.965 Q 228.461 189.891 228.686 190.038 L 228.686 190.038 L 228.686 190.038 Q 228.912 190.185 228.947 190.417 L 228.947 190.417 L 228.947 190.417 Q 229.218 191.613 229.379 192.695 L 229.379 192.695 L 229.379 192.695 Q 229.54 193.778 229.575 194.723 L 229.575 194.723 L 229.575 194.723 Q 229.701 197.257 228.983 198.704 L 228.983 198.704 L 228.983 198.704 Q 228.775 199.132 228.308 199.222 L 228.308 199.222 L 228.308 199.222 Q 227.842 199.312 227.363 198.952 L 227.363 198.952 L 227.363 198.952 Q 226.884 198.591 226.386 198.124 L 226.386 198.124 L 226.386 198.124 Q 226.351 198.097 226.3 198.046 L 226.3 198.046 L 226.3 198.046 Q 226.249 197.995 226.178 197.94 L 226.178 197.94 L 226.178 197.94 Q 226.186 198.41 226.304 199.352 L 226.304 199.352 L 226.304 199.352 Q 226.422 200.293 226.681 201.956 L 226.681 201.956 L 226.681 201.956 Q 226.716 202.188 226.563 202.391 L 226.563 202.391 L 226.563 202.391 Q 226.41 202.595 226.159 202.627 L 226.159 202.627 L 226.159 202.627 Q 225.924 202.682 225.718 202.539 L 225.718 202.539 L 225.718 202.539 Q 225.512 202.395 225.465 202.121 L 225.465 202.121 L 225.465 202.121 Q 225.331 201.156 225.225 200.36 L 225.225 200.36 L 225.225 200.36 Q 225.12 199.564 225.061 198.94 L 225.061 198.94 L 225.061 198.94 Q 224.982 198.108 224.976 197.679 L 224.976 197.679 L 224.976 197.679 Q 224.97 197.249 225.013 197.034 Z  M 223.138 204.398 L 223.138 204.398 L 223.138 204.398 Q 223.176 204.306 223.217 204.258 L 223.217 204.258 L 223.217 204.258 Q 223.414 203.993 223.62 203.938 L 223.62 203.938 L 223.62 203.938 Q 223.827 203.883 223.935 203.884 L 223.935 203.884 L 223.935 203.884 Q 224.395 203.923 224.737 204.325 L 224.737 204.325 L 224.737 204.325 Q 225.08 204.727 225.415 205.277 L 225.415 205.277 L 225.415 205.277 Q 225.517 205.449 225.65 205.623 L 225.65 205.623 L 225.65 205.623 Q 225.784 205.797 225.882 205.925 L 225.882 205.925 L 225.882 205.925 Q 225.893 205.951 225.933 206.011 L 225.933 206.011 L 225.933 206.011 Q 225.942 205.885 225.934 205.697 L 225.934 205.697 L 225.934 205.697 Q 225.925 205.509 225.861 205.245 L 225.861 205.245 L 225.861 205.245 Q 225.795 204.828 225.625 204.325 L 225.625 204.325 L 225.625 204.325 Q 225.455 203.821 225.264 203.288 L 225.264 203.288 L 225.264 203.288 Q 225.229 203.165 225.179 203.025 L 225.179 203.025 L 225.179 203.025 Q 225.128 202.885 225.074 202.754 L 225.074 202.754 L 225.074 202.754 Q 224.995 202.527 225.1 202.3 L 225.1 202.3 L 225.1 202.3 Q 225.205 202.072 225.451 202.001 L 225.451 202.001 L 225.451 202.001 Q 225.686 201.904 225.909 202.018 L 225.909 202.018 L 225.909 202.018 Q 226.133 202.132 226.212 202.36 L 226.212 202.36 L 226.212 202.36 Q 226.266 202.49 226.316 202.63 L 226.316 202.63 L 226.316 202.63 Q 226.366 202.77 226.402 202.893 L 226.402 202.893 L 226.402 202.893 Q 226.693 203.706 226.909 204.466 L 226.909 204.466 L 226.909 204.466 Q 227.124 205.227 227.135 205.881 L 227.135 205.881 L 227.135 205.881 Q 227.145 206.534 226.783 206.991 L 226.783 206.991 L 226.783 206.991 Q 226.579 207.274 226.346 207.34 L 226.346 207.34 L 226.346 207.34 Q 226.113 207.406 225.976 207.371 L 225.976 207.371 L 225.976 207.371 Q 225.501 207.369 225.148 206.941 L 225.148 206.941 L 225.148 206.941 Q 224.794 206.513 224.412 205.922 L 224.412 205.922 L 224.412 205.922 Q 224.39 205.87 224.326 205.789 L 224.326 205.789 L 224.326 205.789 Q 224.262 205.708 224.211 205.622 L 224.211 205.622 L 224.211 205.622 Q 224.207 205.945 224.19 206.458 L 224.19 206.458 L 224.19 206.458 Q 224.172 206.97 224.152 207.698 L 224.152 207.698 L 224.152 207.698 Q 224.127 207.969 223.941 208.13 L 223.941 208.13 L 223.941 208.13 Q 223.755 208.291 223.503 208.273 L 223.503 208.273 L 223.503 208.273 Q 223.261 208.281 223.091 208.092 L 223.091 208.092 L 223.091 208.092 Q 222.921 207.902 222.912 207.66 L 222.912 207.66 L 222.912 207.66 Q 222.954 206.985 222.987 206.436 L 222.987 206.436 L 222.987 206.436 Q 223.019 205.886 223.028 205.5 L 223.028 205.5 L 223.028 205.5 Q 223.03 205.285 223.042 205.127 L 223.042 205.127 L 223.042 205.127 Q 223.053 204.969 223.062 204.843 L 223.062 204.843 L 223.062 204.843 Q 223.078 204.699 223.089 204.595 L 223.089 204.595 L 223.089 204.595 Q 223.099 204.491 223.138 204.398 Z  M 218.911 210.703 L 218.911 210.703 L 218.911 210.703 Q 219.044 210.504 219.249 210.448 L 219.249 210.448 L 219.249 210.448 Q 219.643 210.326 219.898 210.665 L 219.898 210.665 L 219.898 210.665 Q 219.915 210.676 220.214 211.056 L 220.214 211.056 L 220.214 211.056 Q 220.514 211.436 220.885 211.924 L 220.885 211.924 L 220.885 211.924 Q 221.113 212.195 221.276 212.401 L 221.276 212.401 L 221.276 212.401 Q 221.44 212.606 221.573 212.767 L 221.573 212.767 L 221.573 212.767 Q 221.706 212.207 221.898 211.397 L 221.898 211.397 L 221.898 211.397 Q 222.089 210.587 222.294 209.702 L 222.294 209.702 L 222.294 209.702 Q 222.499 208.817 222.694 207.985 L 222.694 207.985 L 222.694 207.985 Q 222.749 207.758 222.968 207.627 L 222.968 207.627 L 222.968 207.627 Q 223.187 207.497 223.442 207.547 L 223.442 207.547 L 223.442 207.547 Q 223.67 207.602 223.8 207.822 L 223.8 207.822 L 223.8 207.822 Q 223.931 208.041 223.881 208.296 L 223.881 208.296 L 223.881 208.296 Q 223.648 209.222 223.406 210.215 L 223.406 210.215 L 223.406 210.215 Q 223.165 211.208 222.968 212.062 L 222.968 212.062 L 222.968 212.062 Q 222.771 212.917 222.649 213.46 L 222.649 213.46 L 222.649 213.46 Q 222.527 214.004 222.527 214.004 L 222.527 214.004 L 222.527 214.004 Q 222.489 214.098 222.441 214.187 L 222.441 214.187 L 222.441 214.187 Q 222.394 214.276 222.317 214.32 L 222.317 214.32 L 222.317 214.32 Q 222.128 214.531 221.828 214.475 L 221.828 214.475 L 221.828 214.475 Q 221.64 214.47 221.437 214.323 L 221.437 214.323 L 221.437 214.323 Q 221.235 214.176 220.908 213.837 L 220.908 213.837 L 220.908 213.837 Q 220.725 213.643 220.517 213.396 L 220.517 213.396 L 220.517 213.396 Q 220.309 213.15 220.053 212.811 L 220.053 212.811 L 220.053 212.811 Q 219.998 212.75 219.959 212.7 L 219.959 212.7 L 219.959 212.7 Q 219.92 212.65 219.865 212.589 L 219.865 212.589 L 219.865 212.589 Q 219.787 213.499 219.543 214.731 L 219.543 214.731 L 219.543 214.731 Q 219.504 214.969 219.302 215.111 L 219.302 215.111 L 219.302 215.111 Q 219.099 215.252 218.872 215.197 L 218.872 215.197 L 218.872 215.197 Q 218.622 215.174 218.478 214.958 L 218.478 214.958 L 218.478 214.958 Q 218.334 214.742 218.373 214.503 L 218.373 214.503 L 218.373 214.503 Q 218.539 213.532 218.633 212.742 L 218.633 212.742 L 218.633 212.742 Q 218.728 211.952 218.778 211.48 L 218.778 211.48 L 218.778 211.48 Q 218.827 211.009 218.827 211.009 L 218.827 211.009 L 218.827 211.009 Q 218.811 210.853 218.911 210.703 Z  M 215.19 213.86 L 215.19 213.86 L 215.19 213.86 Q 215.298 213.771 215.426 213.705 L 215.426 213.705 L 215.426 213.705 Q 215.553 213.64 215.674 213.567 L 215.674 213.567 L 215.674 213.567 Q 216.016 213.416 216.327 213.575 L 216.327 213.575 L 216.327 213.575 Q 216.72 213.77 216.934 214.331 L 216.934 214.331 L 216.934 214.331 Q 217.148 214.893 217.378 215.868 L 217.378 215.868 L 217.378 215.868 Q 217.418 216.042 217.475 216.254 L 217.475 216.254 L 217.475 216.254 Q 217.532 216.466 217.584 216.656 L 217.584 216.656 L 217.584 216.656 Q 217.722 216.413 217.8 216.052 L 217.8 216.052 L 217.8 216.052 Q 217.879 215.69 217.959 215.314 L 217.959 215.314 L 217.959 215.314 Q 218.025 215.079 218.237 214.944 L 218.237 214.944 L 218.237 214.944 Q 218.45 214.809 218.688 214.847 L 218.688 214.847 L 218.688 214.847 Q 218.923 214.913 219.051 215.117 L 219.051 215.117 L 219.051 215.117 Q 219.18 215.322 219.155 215.575 L 219.155 215.575 L 219.155 215.575 Q 219.065 215.908 218.978 216.29 L 218.978 216.29 L 218.978 216.29 Q 218.89 216.672 218.744 216.998 L 218.744 216.998 L 218.744 216.998 Q 218.375 217.843 217.723 218.119 L 217.723 218.119 L 217.723 218.119 Q 217.437 218.275 217.098 218.114 L 217.098 218.114 L 217.098 218.114 Q 216.771 217.968 216.599 217.489 L 216.599 217.489 L 216.599 217.489 Q 216.426 217.01 216.216 216.122 L 216.216 216.122 L 216.216 216.122 Q 216.141 215.873 216.074 215.617 L 216.074 215.617 L 216.074 215.617 Q 216.007 215.362 215.945 215.128 L 215.945 215.128 L 215.945 215.128 Q 215.91 215.054 215.895 214.988 L 215.895 214.988 L 215.895 214.988 Q 215.88 214.923 215.858 214.864 L 215.858 214.864 L 215.858 214.864 Q 215.571 215.176 215.179 215.976 L 215.179 215.976 L 215.179 215.976 Q 214.786 216.775 214.416 218.501 L 214.416 218.501 L 214.416 218.501 Q 214.211 219.419 214.095 220.224 L 214.095 220.224 L 214.095 220.224 Q 213.98 221.03 213.93 221.537 L 213.93 221.537 L 213.93 221.537 Q 213.879 222.043 213.879 222.043 L 213.879 222.043 L 213.879 222.043 Q 213.871 222.412 213.545 222.55 L 213.545 222.55 L 213.545 222.55 Q 213.408 222.636 213.261 222.614 L 213.261 222.614 L 213.261 222.614 Q 213.114 222.592 213.004 222.553 L 213.004 222.553 L 213.004 222.553 Q 212.718 222.425 212.569 222.069 L 212.569 222.069 L 212.569 222.069 Q 212.42 221.713 212.163 220.864 L 212.163 220.864 L 212.163 220.864 Q 212.091 220.586 212.011 220.316 L 212.011 220.316 L 212.011 220.316 Q 211.932 220.045 211.87 219.811 L 211.87 219.811 L 211.87 219.811 Q 211.835 219.737 211.811 219.692 L 211.811 219.692 L 211.811 219.692 Q 211.787 219.647 211.777 219.603 L 211.777 219.603 L 211.777 219.603 Q 211.521 219.89 211.359 220.371 L 211.359 220.371 L 211.359 220.371 Q 211.198 220.853 211.096 221.376 L 211.096 221.376 L 211.096 221.376 Q 210.994 221.898 210.93 222.262 L 210.93 222.262 L 210.93 222.262 Q 210.889 222.528 210.691 222.664 L 210.691 222.664 L 210.691 222.664 Q 210.492 222.801 210.239 222.776 L 210.239 222.776 L 210.239 222.776 Q 209.989 222.722 209.844 222.53 L 209.844 222.53 L 209.844 222.53 Q 209.7 222.338 209.741 222.072 L 209.741 222.072 L 209.741 222.072 Q 209.878 221.262 210.077 220.478 L 210.077 220.478 L 210.077 220.478 Q 210.275 219.695 210.632 219.105 L 210.632 219.105 L 210.632 219.105 Q 210.99 218.516 211.601 218.221 L 211.601 218.221 L 211.601 218.221 Q 211.938 218.127 212.211 218.239 L 212.211 218.239 L 212.211 218.239 Q 212.481 218.38 212.658 218.674 L 212.658 218.674 L 212.658 218.674 Q 212.835 218.969 213.012 219.47 L 213.012 219.47 L 213.012 219.47 Q 213.056 219.176 213.12 218.891 L 213.12 218.891 L 213.12 218.891 Q 213.183 218.606 213.245 218.271 L 213.245 218.271 L 213.245 218.271 Q 213.999 214.835 215.19 213.86 Z  M 154.915 182.929 L 154.915 182.929 L 154.915 182.929 Q 154.887 183.066 154.825 183.176 L 154.825 183.176 L 154.825 183.176 Q 154.672 183.533 154.268 183.616 L 154.268 183.616 L 154.268 183.616 Q 153.911 183.667 153.536 183.398 L 153.536 183.398 L 153.536 183.398 Q 153.162 183.129 152.714 182.714 L 152.714 182.714 L 152.714 182.714 Q 152.561 182.561 152.397 182.416 L 152.397 182.416 L 152.397 182.416 Q 152.232 182.27 152.091 182.161 L 152.091 182.161 L 152.091 182.161 Q 152.04 182.11 151.995 182.08 L 151.995 182.08 L 151.995 182.08 Q 151.95 182.051 151.914 182.023 L 151.914 182.023 L 151.914 182.023 Q 151.699 182.592 151.593 183.377 L 151.593 183.377 L 151.593 183.377 Q 151.487 184.161 151.55 185.173 L 151.55 185.173 L 151.55 185.173 Q 151.597 186.059 151.746 187.099 L 151.746 187.099 L 151.746 187.099 Q 151.895 188.138 152.15 189.311 L 152.15 189.311 L 152.15 189.311 Q 152.185 189.542 152.064 189.742 L 152.064 189.742 L 152.064 189.742 Q 151.942 189.942 151.707 189.997 L 151.707 189.997 L 151.707 189.997 Q 151.468 190.072 151.242 189.925 L 151.242 189.925 L 151.242 189.925 Q 151.016 189.778 150.981 189.546 L 150.981 189.546 L 150.981 189.546 Q 150.71 188.35 150.55 187.268 L 150.55 187.268 L 150.55 187.268 Q 150.389 186.185 150.353 185.24 L 150.353 185.24 L 150.353 185.24 Q 150.228 182.706 150.945 181.259 L 150.945 181.259 L 150.945 181.259 Q 151.153 180.831 151.62 180.741 L 151.62 180.741 L 151.62 180.741 Q 152.087 180.65 152.565 181.011 L 152.565 181.011 L 152.565 181.011 Q 153.044 181.372 153.542 181.839 L 153.542 181.839 L 153.542 181.839 Q 153.577 181.866 153.628 181.917 L 153.628 181.917 L 153.628 181.917 Q 153.679 181.968 153.75 182.023 L 153.75 182.023 L 153.75 182.023 Q 153.742 181.553 153.624 180.611 L 153.624 180.611 L 153.624 180.611 Q 153.507 179.67 153.248 178.007 L 153.248 178.007 L 153.248 178.007 Q 153.212 177.775 153.365 177.571 L 153.365 177.571 L 153.365 177.571 Q 153.518 177.367 153.769 177.336 L 153.769 177.336 L 153.769 177.336 Q 154.005 177.281 154.211 177.424 L 154.211 177.424 L 154.211 177.424 Q 154.416 177.567 154.464 177.842 L 154.464 177.842 L 154.464 177.842 Q 154.597 178.807 154.703 179.603 L 154.703 179.603 L 154.703 179.603 Q 154.809 180.399 154.868 181.023 L 154.868 181.023 L 154.868 181.023 Q 154.946 181.854 154.952 182.284 L 154.952 182.284 L 154.952 182.284 Q 154.958 182.713 154.915 182.929 Z  M 157.813 177.18 L 157.813 177.18 L 157.813 177.18 Q 157.747 177.304 157.654 177.413 L 157.654 177.413 L 157.654 177.413 Q 157.562 177.523 157.478 177.637 L 157.478 177.637 L 157.478 177.637 Q 157.221 177.907 156.872 177.88 L 156.872 177.88 L 156.872 177.88 Q 156.435 177.851 156.021 177.415 L 156.021 177.415 L 156.021 177.415 Q 155.608 176.979 155.021 176.167 L 155.021 176.167 L 155.021 176.167 Q 154.917 176.021 154.783 175.847 L 154.783 175.847 L 154.783 175.847 Q 154.649 175.674 154.528 175.519 L 154.528 175.519 L 154.528 175.519 Q 154.494 175.795 154.56 176.159 L 154.56 176.159 L 154.56 176.159 Q 154.627 176.523 154.697 176.901 L 154.697 176.901 L 154.697 176.901 Q 154.727 177.143 154.582 177.35 L 154.582 177.35 L 154.582 177.35 Q 154.438 177.556 154.204 177.613 L 154.204 177.613 L 154.204 177.613 Q 153.962 177.642 153.764 177.503 L 153.764 177.503 L 153.764 177.503 Q 153.567 177.363 153.493 177.12 L 153.493 177.12 L 153.493 177.12 Q 153.448 176.778 153.382 176.392 L 153.382 176.392 L 153.382 176.392 Q 153.316 176.005 153.326 175.648 L 153.326 175.648 L 153.326 175.648 Q 153.341 174.727 153.838 174.221 L 153.838 174.221 L 153.838 174.221 Q 154.041 173.967 154.417 173.986 L 154.417 173.986 L 154.417 173.986 Q 154.774 173.995 155.118 174.371 L 155.118 174.371 L 155.118 174.371 Q 155.461 174.747 155.996 175.486 L 155.996 175.486 L 155.996 175.486 Q 156.161 175.687 156.321 175.897 L 156.321 175.897 L 156.321 175.897 Q 156.481 176.107 156.628 176.299 L 156.628 176.299 L 156.628 176.299 Q 156.689 176.354 156.728 176.409 L 156.728 176.409 L 156.728 176.409 Q 156.767 176.464 156.81 176.51 L 156.81 176.51 L 156.81 176.51 Q 156.955 176.111 157.01 175.222 L 157.01 175.222 L 157.01 175.222 Q 157.065 174.333 156.744 172.598 L 156.744 172.598 L 156.744 172.598 Q 156.581 171.672 156.378 170.884 L 156.378 170.884 L 156.378 170.884 Q 156.175 170.095 156.027 169.608 L 156.027 169.608 L 156.027 169.608 Q 155.879 169.121 155.879 169.121 L 155.879 169.121 L 155.879 169.121 Q 155.745 168.778 155.993 168.525 L 155.993 168.525 L 155.993 168.525 Q 156.086 168.393 156.23 168.357 L 156.23 168.357 L 156.23 168.357 Q 156.374 168.32 156.491 168.314 L 156.491 168.314 L 156.491 168.314 Q 156.804 168.323 157.078 168.594 L 157.078 168.594 L 157.078 168.594 Q 157.353 168.865 157.916 169.551 L 157.916 169.551 L 157.916 169.551 Q 158.089 169.779 158.267 169.999 L 158.267 169.999 L 158.267 169.999 Q 158.444 170.218 158.591 170.41 L 158.591 170.41 L 158.591 170.41 Q 158.653 170.465 158.692 170.498 L 158.692 170.498 L 158.692 170.498 Q 158.731 170.53 158.757 170.566 L 158.757 170.566 L 158.757 170.566 Q 158.883 170.203 158.847 169.696 L 158.847 169.696 L 158.847 169.696 Q 158.812 169.19 158.705 168.668 L 158.705 168.668 L 158.705 168.668 Q 158.598 168.146 158.518 167.786 L 158.518 167.786 L 158.518 167.786 Q 158.453 167.525 158.584 167.323 L 158.584 167.323 L 158.584 167.323 Q 158.714 167.121 158.958 167.046 L 158.958 167.046 L 158.958 167.046 Q 159.21 166.999 159.417 167.121 L 159.417 167.121 L 159.417 167.121 Q 159.624 167.243 159.689 167.504 L 159.689 167.504 L 159.689 167.504 Q 159.873 168.305 159.991 169.105 L 159.991 169.105 L 159.991 169.105 Q 160.108 169.904 160.005 170.586 L 160.005 170.586 L 160.005 170.586 Q 159.902 171.268 159.45 171.775 L 159.45 171.775 L 159.45 171.775 Q 159.176 171.991 158.881 171.992 L 158.881 171.992 L 158.881 171.992 Q 158.577 171.966 158.301 171.762 L 158.301 171.762 L 158.301 171.762 Q 158.024 171.558 157.668 171.164 L 157.668 171.164 L 157.668 171.164 Q 157.741 171.452 157.791 171.74 L 157.791 171.74 L 157.791 171.74 Q 157.842 172.027 157.913 172.36 L 157.913 172.36 L 157.913 172.36 Q 158.537 175.822 157.813 177.18 Z  M 163.096 168.114 L 163.096 168.114 L 163.096 168.114 Q 162.995 168.212 162.874 168.287 L 162.874 168.287 L 162.874 168.287 Q 162.753 168.363 162.638 168.446 L 162.638 168.446 L 162.638 168.446 Q 162.31 168.625 161.987 168.492 L 161.987 168.492 L 161.987 168.492 Q 161.579 168.33 161.319 167.788 L 161.319 167.788 L 161.319 167.788 Q 161.06 167.246 160.75 166.293 L 160.75 166.293 L 160.75 166.293 Q 160.696 166.123 160.622 165.916 L 160.622 165.916 L 160.622 165.916 Q 160.548 165.71 160.48 165.525 L 160.48 165.525 L 160.48 165.525 Q 160.363 165.778 160.314 166.145 L 160.314 166.145 L 160.314 166.145 Q 160.266 166.511 160.217 166.893 L 160.217 166.893 L 160.217 166.893 Q 160.17 167.132 159.97 167.284 L 159.97 167.284 L 159.97 167.284 Q 159.769 167.437 159.529 167.419 L 159.529 167.419 L 159.529 167.419 Q 159.29 167.372 159.144 167.179 L 159.144 167.179 L 159.144 167.179 Q 158.999 166.985 159.003 166.731 L 159.003 166.731 L 159.003 166.731 Q 159.065 166.393 159.121 166.004 L 159.121 166.004 L 159.121 166.004 Q 159.177 165.616 159.296 165.279 L 159.296 165.279 L 159.296 165.279 Q 159.593 164.407 160.221 164.078 L 160.221 164.078 L 160.221 164.078 Q 160.493 163.899 160.844 164.032 L 160.844 164.032 L 160.844 164.032 Q 161.182 164.15 161.393 164.614 L 161.393 164.614 L 161.393 164.614 Q 161.605 165.077 161.887 165.944 L 161.887 165.944 L 161.887 165.944 Q 161.982 166.186 162.07 166.435 L 162.07 166.435 L 162.07 166.435 Q 162.158 166.684 162.239 166.912 L 162.239 166.912 L 162.239 166.912 Q 162.28 166.983 162.301 167.047 L 162.301 167.047 L 162.301 167.047 Q 162.321 167.111 162.348 167.168 L 162.348 167.168 L 162.348 167.168 Q 162.608 166.833 162.933 166.004 L 162.933 166.004 L 162.933 166.004 Q 163.258 165.175 163.485 163.425 L 163.485 163.425 L 163.485 163.425 Q 163.614 162.494 163.663 161.681 L 163.663 161.681 L 163.663 161.681 Q 163.711 160.869 163.72 160.36 L 163.72 160.36 L 163.72 160.36 Q 163.728 159.85 163.728 159.85 L 163.728 159.85 L 163.728 159.85 Q 163.706 159.482 164.02 159.318 L 164.02 159.318 L 164.02 159.318 Q 164.149 159.221 164.297 159.231 L 164.297 159.231 L 164.297 159.231 Q 164.446 159.24 164.558 159.27 L 164.558 159.27 L 164.558 159.27 Q 164.854 159.374 165.032 159.717 L 165.032 159.717 L 165.032 159.717 Q 165.21 160.059 165.536 160.885 L 165.536 160.885 L 165.536 160.885 Q 165.63 161.155 165.732 161.418 L 165.732 161.418 L 165.732 161.418 Q 165.834 161.682 165.915 161.909 L 165.915 161.909 L 165.915 161.909 Q 165.956 161.981 165.984 162.024 L 165.984 162.024 L 165.984 162.024 Q 166.011 162.067 166.025 162.109 L 166.025 162.109 L 166.025 162.109 Q 166.256 161.802 166.377 161.309 L 166.377 161.309 L 166.377 161.309 Q 166.499 160.816 166.557 160.286 L 166.557 160.286 L 166.557 160.286 Q 166.615 159.757 166.65 159.39 L 166.65 159.39 L 166.65 159.39 Q 166.668 159.121 166.855 158.969 L 166.855 158.969 L 166.855 158.969 Q 167.041 158.816 167.296 158.821 L 167.296 158.821 L 167.296 158.821 Q 167.55 158.853 167.709 159.033 L 167.709 159.033 L 167.709 159.033 Q 167.869 159.212 167.85 159.48 L 167.85 159.48 L 167.85 159.48 Q 167.78 160.3 167.647 161.097 L 167.647 161.097 L 167.647 161.097 Q 167.513 161.894 167.206 162.511 L 167.206 162.511 L 167.206 162.511 Q 166.899 163.128 166.313 163.472 L 166.313 163.472 L 166.313 163.472 Q 165.986 163.594 165.704 163.504 L 165.704 163.504 L 165.704 163.504 Q 165.424 163.386 165.223 163.107 L 165.223 163.107 L 165.223 163.107 Q 165.023 162.828 164.804 162.344 L 164.804 162.344 L 164.804 162.344 Q 164.785 162.64 164.745 162.93 L 164.745 162.93 L 164.745 162.93 Q 164.705 163.219 164.671 163.558 L 164.671 163.558 L 164.671 163.558 Q 164.203 167.044 163.096 168.114 Z  M 173.034 158.779 L 173.034 158.779 L 173.034 158.779 Q 172.822 158.892 172.615 158.844 L 172.615 158.844 L 172.615 158.844 Q 172.211 158.765 172.146 158.346 L 172.146 158.346 L 172.146 158.346 Q 172.136 158.328 172.052 157.852 L 172.052 157.852 L 172.052 157.852 Q 171.968 157.376 171.871 156.77 L 171.871 156.77 L 171.871 156.77 Q 171.799 156.423 171.752 156.164 L 171.752 156.164 L 171.752 156.164 Q 171.705 155.906 171.664 155.702 L 171.664 155.702 L 171.664 155.702 Q 171.282 156.132 170.73 156.755 L 170.73 156.755 L 170.73 156.755 Q 170.178 157.378 169.579 158.061 L 169.579 158.061 L 169.579 158.061 Q 168.98 158.743 168.415 159.385 L 168.415 159.385 L 168.415 159.385 Q 168.259 159.559 168.004 159.57 L 168.004 159.57 L 168.004 159.57 Q 167.749 159.581 167.548 159.416 L 167.548 159.416 L 167.548 159.416 Q 167.374 159.26 167.363 159.005 L 167.363 159.005 L 167.363 159.005 Q 167.352 158.751 167.516 158.549 L 167.516 158.549 L 167.516 158.549 Q 168.16 157.843 168.842 157.083 L 168.842 157.083 L 168.842 157.083 Q 169.524 156.322 170.102 155.662 L 170.102 155.662 L 170.102 155.662 Q 170.679 155.003 171.044 154.582 L 171.044 154.582 L 171.044 154.582 Q 171.408 154.16 171.408 154.16 L 171.408 154.16 L 171.408 154.16 Q 171.487 154.096 171.571 154.04 L 171.571 154.04 L 171.571 154.04 Q 171.654 153.984 171.744 153.982 L 171.744 153.982 L 171.744 153.982 Q 172.01 153.885 172.247 154.076 L 172.247 154.076 L 172.247 154.076 Q 172.411 154.17 172.52 154.395 L 172.52 154.395 L 172.52 154.395 Q 172.629 154.62 172.757 155.073 L 172.757 155.073 L 172.757 155.073 Q 172.826 155.331 172.893 155.647 L 172.893 155.647 L 172.893 155.647 Q 172.959 155.962 173.024 156.381 L 173.024 156.381 L 173.024 156.381 Q 173.044 156.461 173.055 156.524 L 173.055 156.524 L 173.055 156.524 Q 173.065 156.586 173.085 156.666 L 173.085 156.666 L 173.085 156.666 Q 173.584 155.901 174.382 154.932 L 174.382 154.932 L 174.382 154.932 Q 174.529 154.74 174.774 154.711 L 174.774 154.711 L 174.774 154.711 Q 175.019 154.682 175.193 154.838 L 175.193 154.838 L 175.193 154.838 Q 175.403 154.976 175.427 155.235 L 175.427 155.235 L 175.427 155.235 Q 175.452 155.494 175.305 155.686 L 175.305 155.686 L 175.305 155.686 Q 174.699 156.462 174.243 157.114 L 174.243 157.114 L 174.243 157.114 Q 173.786 157.766 173.519 158.158 L 173.519 158.158 L 173.519 158.158 Q 173.252 158.549 173.252 158.549 L 173.252 158.549 L 173.252 158.549 Q 173.193 158.694 173.034 158.779 Z  M 182.733 155.033 L 182.733 155.033 L 182.733 155.033 Q 182.596 155.061 182.47 155.045 L 182.47 155.045 L 182.47 155.045 Q 182.082 155.041 181.85 154.7 L 181.85 154.7 L 181.85 154.7 Q 181.666 154.39 181.77 153.941 L 181.77 153.941 L 181.77 153.941 Q 181.874 153.492 182.086 152.919 L 182.086 152.919 L 182.086 152.919 Q 182.168 152.719 182.239 152.511 L 182.239 152.511 L 182.239 152.511 Q 182.309 152.303 182.357 152.131 L 182.357 152.131 L 182.357 152.131 Q 182.384 152.064 182.394 152.011 L 182.394 152.011 L 182.394 152.011 Q 182.404 151.958 182.415 151.915 L 182.415 151.915 L 182.415 151.915 Q 181.807 151.935 181.043 152.138 L 181.043 152.138 L 181.043 152.138 Q 180.278 152.342 179.368 152.789 L 179.368 152.789 L 179.368 152.789 Q 178.568 153.174 177.665 153.711 L 177.665 153.711 L 177.665 153.711 Q 176.763 154.248 175.779 154.935 L 175.779 154.935 L 175.779 154.935 Q 175.579 155.056 175.347 155.021 L 175.347 155.021 L 175.347 155.021 Q 175.116 154.986 174.975 154.79 L 174.975 154.79 L 174.975 154.79 Q 174.814 154.597 174.863 154.333 L 174.863 154.333 L 174.863 154.333 Q 174.912 154.068 175.112 153.946 L 175.112 153.946 L 175.112 153.946 Q 176.112 153.236 177.05 152.672 L 177.05 152.672 L 177.05 152.672 Q 177.987 152.107 178.846 151.711 L 178.846 151.711 L 178.846 151.711 Q 181.137 150.62 182.749 150.726 L 182.749 150.726 L 182.749 150.726 Q 183.223 150.754 183.486 151.15 L 183.486 151.15 L 183.486 151.15 Q 183.749 151.546 183.6 152.127 L 183.6 152.127 L 183.6 152.127 Q 183.451 152.707 183.212 153.347 L 183.212 153.347 L 183.212 153.347 Q 183.2 153.39 183.172 153.456 L 183.172 153.456 L 183.172 153.456 Q 183.145 153.523 183.121 153.609 L 183.121 153.609 L 183.121 153.609 Q 183.553 153.421 184.376 152.951 L 184.376 152.951 L 184.376 152.951 Q 185.2 152.48 186.636 151.601 L 186.636 151.601 L 186.636 151.601 Q 186.836 151.48 187.083 151.543 L 187.083 151.543 L 187.083 151.543 Q 187.33 151.605 187.456 151.825 L 187.456 151.825 L 187.456 151.825 Q 187.597 152.021 187.544 152.266 L 187.544 152.266 L 187.544 152.266 Q 187.491 152.511 187.255 152.66 L 187.255 152.66 L 187.255 152.66 Q 186.416 153.155 185.722 153.559 L 185.722 153.559 L 185.722 153.559 Q 185.028 153.963 184.474 154.257 L 184.474 154.257 L 184.474 154.257 Q 183.737 154.649 183.343 154.819 L 183.343 154.819 L 183.343 154.819 Q 182.949 154.99 182.733 155.033 Z  M 189.148 155.389 L 189.148 155.389 L 189.148 155.389 Q 189.009 155.375 188.872 155.331 L 188.872 155.331 L 188.872 155.331 Q 188.736 155.287 188.599 155.254 L 188.599 155.254 L 188.599 155.254 Q 188.25 155.119 188.142 154.786 L 188.142 154.786 L 188.142 154.786 Q 188.003 154.371 188.248 153.822 L 188.248 153.822 L 188.248 153.822 Q 188.494 153.274 189.021 152.422 L 189.021 152.422 L 189.021 152.422 Q 189.116 152.27 189.225 152.08 L 189.225 152.08 L 189.225 152.08 Q 189.335 151.89 189.432 151.719 L 189.432 151.719 L 189.432 151.719 Q 189.163 151.793 188.852 151.993 L 188.852 151.993 L 188.852 151.993 Q 188.541 152.193 188.219 152.402 L 188.219 152.402 L 188.219 152.402 Q 188.006 152.522 187.76 152.467 L 187.76 152.467 L 187.76 152.467 Q 187.514 152.413 187.373 152.218 L 187.373 152.218 L 187.373 152.218 Q 187.253 152.005 187.307 151.769 L 187.307 151.769 L 187.307 151.769 Q 187.36 151.533 187.557 151.372 L 187.557 151.372 L 187.557 151.372 Q 187.856 151.2 188.188 150.992 L 188.188 150.992 L 188.188 150.992 Q 188.52 150.784 188.854 150.656 L 188.854 150.656 L 188.854 150.656 Q 189.712 150.32 190.369 150.586 L 190.369 150.586 L 190.369 150.586 Q 190.681 150.677 190.807 151.031 L 190.807 151.031 L 190.807 151.031 Q 190.934 151.366 190.718 151.826 L 190.718 151.826 L 190.718 151.826 Q 190.501 152.287 190.022 153.064 L 190.022 153.064 L 190.022 153.064 Q 189.899 153.293 189.766 153.521 L 189.766 153.521 L 189.766 153.521 Q 189.632 153.749 189.511 153.958 L 189.511 153.958 L 189.511 153.958 Q 189.483 154.035 189.448 154.092 L 189.448 154.092 L 189.448 154.092 Q 189.412 154.149 189.386 154.206 L 189.386 154.206 L 189.386 154.206 Q 189.81 154.188 190.652 153.9 L 190.652 153.9 L 190.652 153.9 Q 191.495 153.612 192.977 152.654 L 192.977 152.654 L 192.977 152.654 Q 193.771 152.15 194.422 151.662 L 194.422 151.662 L 194.422 151.662 Q 195.074 151.174 195.467 150.851 L 195.467 150.851 L 195.467 150.851 Q 195.861 150.529 195.861 150.529 L 195.861 150.529 L 195.861 150.529 Q 196.128 150.274 196.456 150.407 L 196.456 150.407 L 196.456 150.407 Q 196.613 150.443 196.702 150.562 L 196.702 150.562 L 196.702 150.562 Q 196.791 150.681 196.841 150.787 L 196.841 150.787 L 196.841 150.787 Q 196.952 151.079 196.806 151.436 L 196.806 151.436 L 196.806 151.436 Q 196.66 151.794 196.241 152.576 L 196.241 152.576 L 196.241 152.576 Q 196.096 152.823 195.96 153.071 L 195.96 153.071 L 195.96 153.071 Q 195.825 153.319 195.704 153.528 L 195.704 153.528 L 195.704 153.528 Q 195.676 153.605 195.661 153.654 L 195.661 153.654 L 195.661 153.654 Q 195.646 153.703 195.622 153.741 L 195.622 153.741 L 195.622 153.741 Q 196.007 153.719 196.461 153.492 L 196.461 153.492 L 196.461 153.492 Q 196.916 153.266 197.357 152.968 L 197.357 152.968 L 197.357 152.968 Q 197.799 152.671 198.101 152.459 L 198.101 152.459 L 198.101 152.459 Q 198.318 152.3 198.555 152.344 L 198.555 152.344 L 198.555 152.344 Q 198.792 152.387 198.953 152.584 L 198.953 152.584 L 198.953 152.584 Q 199.093 152.799 199.059 153.037 L 199.059 153.037 L 199.059 153.037 Q 199.025 153.275 198.808 153.434 L 198.808 153.434 L 198.808 153.434 Q 198.138 153.91 197.444 154.324 L 197.444 154.324 L 197.444 154.324 Q 196.75 154.737 196.08 154.902 L 196.08 154.902 L 196.08 154.902 Q 195.41 155.066 194.769 154.842 L 194.769 154.842 L 194.769 154.842 Q 194.465 154.671 194.351 154.398 L 194.351 154.398 L 194.351 154.398 Q 194.26 154.108 194.343 153.774 L 194.343 153.774 L 194.343 153.774 Q 194.426 153.441 194.655 152.961 L 194.655 152.961 L 194.655 152.961 Q 194.416 153.138 194.169 153.295 L 194.169 153.295 L 194.169 153.295 Q 193.923 153.451 193.642 153.644 L 193.642 153.644 L 193.642 153.644 Q 190.68 155.541 189.148 155.389 Z " fill="rgb(0,0,0)"/></g></svg>